<?xml version="1.0" encoding="utf-8"?>
<!-- Generator: Adobe Illustrator 16.0.0, SVG Export Plug-In . SVG Version: 6.00 Build 0)  -->
<!DOCTYPE svg PUBLIC "-//W3C//DTD SVG 1.1//EN" "http://www.w3.org/Graphics/SVG/1.1/DTD/svg11.dtd">
<svg version="1.1" id="Calque_1" xmlns="http://www.w3.org/2000/svg" xmlns:xlink="http://www.w3.org/1999/xlink" x="0px" y="0px"
	 width="240.945px" height="240.945px" viewBox="-33.322 -0.473 240.945 240.945"
	 enable-background="new -33.322 -0.473 240.945 240.945" xml:space="preserve">
<g>
	<path fill-rule="evenodd" clip-rule="evenodd" d="M205.626,25.705c0,66.141,0,132.281,0,198.421
		c-2.519,0.205-5.039,0.137-7.56,0.036c-0.013-0.434-0.037-0.867-0.037-1.301c-0.001-64.938-0.001-129.878,0.002-194.817
		c0-0.788,0.027-1.576,0.042-2.364C200.591,25.688,203.109,25.696,205.626,25.705z"/>
	<path fill-rule="evenodd" clip-rule="evenodd" d="M60.48,239.517c0.002-2.527,0.004-5.055,0.006-7.582l-0.001,0.003
		c0.197-0.005,0.394-0.013,0.591-0.013c42.673-0.003,85.347-0.004,128.02-0.004c0.315,0,0.63,0.021,0.944,0.033
		c0.08,0.001,0.161,0.003,0.242,0.004c0.071,2.521,0.166,5.041-0.047,7.559C146.984,239.517,103.733,239.517,60.48,239.517z"/>
	<path fill-rule="evenodd" clip-rule="evenodd" fill="#010101" d="M91.025,2.737c5.131,0,10.261,0,15.391,0
		c-0.016,2.283-0.006,4.566-0.063,6.848c-0.017,0.659,0.222,0.769,0.807,0.761c2.283-0.031,4.567-0.015,6.852-0.016l-0.034-0.034
		c0.006,2.533,0.013,5.065,0.02,7.598c-5.115-0.011-10.23-0.022-15.346-0.034c0.003-2.235-0.027-4.471,0.027-6.705
		c0.018-0.698-0.204-0.84-0.848-0.834c-2.273,0.024-4.547-0.011-6.82-0.023l0.031,0.031C91.036,7.797,91.031,5.267,91.025,2.737z"/>
	<path fill-rule="evenodd" clip-rule="evenodd" fill="#010101" d="M113.993,2.737c5.052,0,10.103,0,15.154,0
		c0.028,2.241,0.104,4.483,0.06,6.723c-0.016,0.779,0.229,0.901,0.919,0.889c2.284-0.042,4.569-0.018,6.854-0.02l-0.033-0.033
		c-0.004,2.524-0.008,5.049-0.012,7.573c-5.123,0.008-10.245,0.017-15.367,0.025c0-2.234-0.038-4.469,0.023-6.701
		c0.021-0.763-0.218-0.888-0.916-0.876c-2.232,0.036-4.466-0.008-6.699-0.021l0.034,0.034
		C114.004,7.799,113.999,5.268,113.993,2.737z"/>
	<path fill-rule="evenodd" clip-rule="evenodd" fill="#010101" d="M68.058,2.737c5.13,0,10.26,0,15.391,0
		c0,2.276,0.021,4.553-0.013,6.829c-0.009,0.608,0.148,0.796,0.777,0.785c2.276-0.042,4.552-0.02,6.829-0.022l-0.031-0.031
		c0.01,2.535,0.02,5.07,0.029,7.606c-5.06-0.002-10.12-0.005-15.179-0.007c-0.017-2.197-0.069-4.396-0.03-6.592
		c0.014-0.763-0.166-1.008-0.962-0.989c-2.275,0.054-4.554,0.016-6.831,0.014C68.043,7.798,68.05,5.268,68.058,2.737z"/>
	<path fill-rule="evenodd" clip-rule="evenodd" fill="#010101" d="M136.96,2.737c5.052,0,10.103,0,15.154,0
		c0.002,2.234,0.034,4.468-0.012,6.701c-0.014,0.708,0.139,0.936,0.892,0.916c2.231-0.061,4.467-0.028,6.7-0.032l-0.028-0.026
		c0.284,2.576,0.042,5.16,0.12,7.738c-0.447-0.212-0.925-0.12-1.389-0.121c-4.622-0.014-9.244-0.017-13.866-0.022
		c0.002-2.208-0.034-4.417,0.025-6.624c0.021-0.802-0.238-0.965-0.989-0.952c-2.206,0.04-4.414-0.006-6.621-0.019l0.033,0.033
		C136.973,7.798,136.967,5.268,136.96,2.737z"/>
	<path fill-rule="evenodd" clip-rule="evenodd" d="M46.274,2.737c4.735,0,9.471,0,14.207,0c0.004,2.524,0.008,5.048,0.013,7.572
		c-0.283,0.166-0.591,0.329-0.253,0.709c0.297,0.334,0.607,0.591,1.119,0.392c1.523-0.592,3.125-0.619,4.73-0.628
		c0.627-0.004,1.058,0.211,1.262,0.827c0.48,1.445,0.283,2.916,0.089,4.363c-0.121,0.907-0.712,1.269-1.735,1.24
		c-3.144-0.085-6.292-0.041-9.438-0.026c-1.167,0.006-2.34,0.097-3.325-0.716c0-1.42,0-2.841,0-4.261
		c0.704,0.038,0.996-0.334,0.89-0.988c-0.118-0.727-0.595-0.108-0.89-0.197c0.031-0.542-0.188-0.716-0.759-0.706
		c-1.732,0.031-3.466-0.015-5.2-0.03C47,9.559,45.937,9.396,46.094,8.599C46.477,6.654,46.177,4.689,46.274,2.737z"/>
	<path fill-rule="evenodd" clip-rule="evenodd" d="M161.349,2.737c4.104,0,8.208,0,12.313,0c0.013,1.654-0.075,3.317,0.078,4.958
		c0.084,0.915,0.223,1.749-0.17,2.635c-0.268,0.606-0.368,1.338,0.228,1.86c0.651,0.57,1.319,0.127,1.823-0.233
		c0.491-0.353,0.954-0.467,1.521-0.465c3.23,0.012,6.461,0.001,9.691,0.008c1.143,0.002,1.692,0.55,1.741,1.722
		c0.021,0.472-0.039,0.95,0.013,1.417c0.118,1.075-0.428,1.384-1.394,1.366c-1.575-0.03-3.151-0.011-4.728-0.006
		c-0.387,0.001-0.838-0.097-1.091,0.285c-0.328,0.496-0.8,0.422-1.265,0.422c-3.112,0.002-6.226-0.042-9.336,0.025
		c-1.025,0.022-1.337-0.457-1.363-1.305c-0.033-1.063-0.004-2.127-0.014-3.191c-0.011-1.109-1.232-2.869-2.31-3.013
		c-1.238-0.166-2.399-0.699-3.702-0.592c-1.308,0.106-2.008-0.655-2.032-1.994C161.332,5.337,161.349,4.037,161.349,2.737z"/>
	<path fill-rule="evenodd" clip-rule="evenodd" fill="#010101" d="M-31.153,132.492c2.531,0.002,5.062,0.004,7.593,0.007
		l-0.029-0.023c0.007,0.63,0.02,1.261,0.021,1.891c0.018,6.697,0.034,13.396,0.051,20.094c0,0.195,0,0.391,0.001,0.584
		c-0.053,0.06-0.057,0.123-0.012,0.189c-0.023,0.08-0.045,0.162-0.068,0.243l0.039-0.03c-2.532,0.005-5.063,0.009-7.595,0.014
		C-31.153,147.805-31.153,140.148-31.153,132.492z"/>
	<path fill-rule="evenodd" clip-rule="evenodd" fill="#010101" d="M161.349,2.737c0,1.3-0.018,2.601,0.005,3.9
		c0.024,1.339,0.725,2.1,2.032,1.994c1.303-0.107,2.464,0.426,3.702,0.592c1.077,0.144,2.299,1.904,2.31,3.013
		c0.01,1.063-0.02,2.128,0.014,3.191c0.026,0.848,0.338,1.327,1.363,1.305c3.11-0.068,6.224-0.023,9.336-0.025
		c0.465,0,0.937,0.074,1.265-0.422c0.253-0.382,0.704-0.284,1.091-0.285c1.576-0.005,3.152-0.024,4.728,0.006
		c0.966,0.018,1.512-0.291,1.394-1.366c-0.052-0.467,0.008-0.945-0.013-1.417c-0.049-1.172-0.599-1.719-1.741-1.722
		c-3.23-0.006-6.461,0.004-9.691-0.008c-0.567-0.002-1.03,0.113-1.521,0.465c-0.504,0.36-1.172,0.803-1.823,0.233
		c-0.596-0.522-0.495-1.254-0.228-1.86c0.393-0.887,0.254-1.721,0.17-2.635c-0.153-1.641-0.065-3.304-0.078-4.958
		c0.474,0,0.947,0,1.421,0c0,2.24,0.034,4.48-0.019,6.719c-0.018,0.735,0.182,0.9,0.905,0.896c4.282-0.024,8.563,0.01,12.845,0.025
		c0.064,0.987,0.811,0.85,1.454,0.883c0.118,0.395,0.111,0.79,0.004,1.185c-0.269,0.02-0.661-0.036-0.685,0.301
		c-0.058,0.822-0.058,1.652,0,2.474c0.023,0.338,0.415,0.282,0.685,0.302c0.117,0.553,0.118,1.105-0.001,1.659
		c-0.538,0.011-0.764,0.305-0.746,0.821c-0.621,0.067-1.243,0.106-1.862-0.026c-1.126-0.526-2.251-0.528-3.376,0.001
		c-0.44,0.025-0.882,0.05-1.322,0.075c-0.442-0.251-0.927-0.135-1.391-0.138c-4.374-0.025-8.747-0.035-13.121-0.05
		c-0.184-0.685-0.254-1.426-0.928-1.869c0.001-1.341,0.001-2.683,0.001-4.024c0.647-0.316,0.647-0.632,0-0.948
		c0.066-0.693-0.371-0.698-0.884-0.698c-2.08,0.002-4.16-0.023-6.24-0.038c0-2.517,0-5.034,0-7.551
		C160.717,2.737,161.034,2.737,161.349,2.737z M174.754,10.723c-0.065-0.029-0.146-0.094-0.192-0.076
		c-0.047,0.019-0.062,0.121-0.09,0.187c0.065,0.028,0.146,0.094,0.191,0.075C174.711,10.891,174.726,10.789,174.754,10.723z"/>
	<path fill-rule="evenodd" clip-rule="evenodd" fill="#010202" d="M46.274,2.737c-0.097,1.953,0.203,3.917-0.18,5.862
		c-0.157,0.797,0.907,0.96,0.891,1.689c-0.556,0.003-1.112,0.006-1.668,0.009l0.036,0.031c-0.196-2.53-0.152-5.061-0.025-7.591
		C45.642,2.737,45.958,2.737,46.274,2.737z"/>
	<path fill-rule="evenodd" clip-rule="evenodd" fill="#030303" d="M159.695,10.322c0.146-2.528,0.149-5.057-0.003-7.585
		c0.236,0,0.474,0,0.71,0c0,2.517,0,5.034,0,7.551c-0.245,0.003-0.49,0.005-0.735,0.008L159.695,10.322z"/>
	<path fill-rule="evenodd" clip-rule="evenodd" fill="#030303" d="M45.367,216.528c-2.366,0.013-4.731,0.012-7.096,0.048
		c-0.537,0.008-0.803-0.092-0.735-0.703c0.057-0.507,0.009-1.024,0.009-1.537c0-16.684-0.012-33.367,0.027-50.052
		c0.002-1.021-0.285-1.183-1.229-1.182c-19.523,0.029-39.047,0.013-58.571,0.042c-1.024,0.001-1.418-0.176-1.361-1.311
		c0.107-2.125,0.031-4.258,0.031-6.388l-0.039,0.03c0.513-0.006,1.025-0.016,1.538-0.016c42.833-0.001,85.665-0.002,128.497-0.003
		c-0.004,0.08-0.009,0.161-0.014,0.241c-0.01,2.45-0.02,4.901-0.029,7.353l0.019,0.052c-0.747,0.023-1.494,0.065-2.241,0.065
		c-18.248,0.004-36.495,0.003-54.742,0.003c-1.182,0-2.365,0.022-3.547-0.01c-0.456-0.013-0.622,0.104-0.613,0.576
		c0.04,2.361,0.054,4.724,0.077,7.086c-0.128,2.533-0.086,5.067-0.022,7.601c-0.007,5.085-0.014,10.17-0.021,15.255
		c-0.001,0.117-0.002,0.233-0.003,0.351c-0.002,2.309-0.004,4.617-0.005,6.925c0.003,0.13,0.006,0.26,0.009,0.391
		c-0.019,5.073-0.144,10.146,0.009,15.219L45.367,216.528z"/>
	<path fill-rule="evenodd" clip-rule="evenodd" fill="#010202" d="M60.487,231.935c-2.277-0.005-4.554-0.037-6.831,0.004
		c-0.641,0.011-0.776-0.185-0.766-0.784c0.039-2.354,0.026-4.708,0.033-7.062l-0.033,0.044c2.527,0.038,5.054,0.075,7.582,0.113
		c0.007,0.119,0.014,0.238,0.021,0.357c-0.002,2.443-0.005,4.887-0.007,7.33L60.487,231.935z"/>
	<path fill-rule="evenodd" clip-rule="evenodd" fill="#010202" d="M52.923,224.093c-2.4,0.324-4.812,0.054-7.217,0.147
		c-0.393,0.016-0.463-0.198-0.458-0.495c0.01-0.505,0.039-1.009,0.06-1.513c0.717-0.639,0.717-2.441,0-3.078
		c-0.108-0.711-0.11-1.421,0.003-2.131c0.283-0.003,0.466-0.12,0.489-0.423c2.29,0.003,4.581,0.006,6.871,0.009
		c0.062,0.053,0.123,0.105,0.184,0.157c0.012,2.457,0.023,4.913,0.035,7.37L52.923,224.093z"/>
	<path fill-rule="evenodd" clip-rule="evenodd" fill="#030303" d="M45.309,219.154c0.717,0.637,0.717,2.439,0,3.078
		C45.197,221.206,45.198,220.18,45.309,219.154z"/>
	<path fill-rule="evenodd" clip-rule="evenodd" fill="#030303" d="M45.8,216.601c-0.023,0.303-0.206,0.42-0.489,0.423
		c-0.071-0.176-0.1-0.346,0.055-0.495l-0.052,0.036C45.477,216.576,45.639,216.589,45.8,216.601z"/>
	<path fill-rule="evenodd" clip-rule="evenodd" fill="#030303" d="M6.986,71.413c0.006-4.755,0.031-9.511,0-14.267
		C6.981,56.443,7.085,56.2,7.852,56.22c2.317,0.061,4.636,0.031,6.955,0.037c-0.213,0.364-0.117,0.767-0.117,1.149
		c-0.007,4.317,0.003,8.635-0.01,12.952c-0.001,0.366,0.199,0.786-0.167,1.105c-1.955-0.102-3.911-0.103-5.866,0.002
		c-0.172,0-0.344-0.001-0.515-0.002c-0.392-0.024-0.784-0.047-1.176-0.07L6.986,71.413z"/>
	<path fill-rule="evenodd" clip-rule="evenodd" fill="#030303" d="M-15.924,117.345c0.016-4.719,0.06-9.439,0.025-14.158
		c-0.007-0.977,0.244-1.253,1.238-1.216c2.16,0.081,4.325,0.007,6.488-0.002l-0.024-0.038c0.013,0.088,0.025,0.175,0.038,0.263
		c-0.003,4.889-0.005,9.777-0.008,14.665c-0.072,0.691-0.609,0.454-0.979,0.458C-11.405,117.339-13.665,117.338-15.924,117.345z"/>
	<path fill-rule="evenodd" clip-rule="evenodd" fill="#010202" d="M-0.587,86.811c-0.007-4.851,0-9.702-0.038-14.553
		c-0.005-0.696,0.229-0.842,0.868-0.835c2.248,0.026,4.496-0.002,6.743-0.01l-0.031-0.02c0.025,0.09,0.05,0.18,0.075,0.27
		c-0.01,4.625-0.014,9.25-0.043,13.874c-0.003,0.429,0.234,0.947-0.271,1.285c-2.447-0.015-4.894-0.029-7.34-0.043L-0.587,86.811z"
		/>
	<path fill-rule="evenodd" clip-rule="evenodd" fill="#030303" d="M-23.561,132.499c0-4.693,0.023-9.386-0.018-14.079
		c-0.008-0.84,0.127-1.144,1.061-1.111c2.205,0.08,4.416,0.017,6.624,0.012c0,4.762-0.001,9.523-0.004,14.285
		c0,0.442,0.186,0.959-0.618,0.941c-2.357-0.051-4.716-0.052-7.074-0.072L-23.561,132.499z"/>
	<path fill-rule="evenodd" clip-rule="evenodd" fill="#010101" d="M-8.172,101.968c-0.01-4.803-0.009-9.607-0.043-14.41
		c-0.004-0.613,0.153-0.794,0.779-0.782c2.283,0.045,4.566,0.028,6.85,0.034l-0.038-0.032c0.014,4.975,0.028,9.949,0.042,14.924
		c-0.093,0.296-0.344,0.274-0.574,0.273c-2.346-0.013-4.692-0.029-7.039-0.045L-8.172,101.968z"/>
	<path fill-rule="evenodd" clip-rule="evenodd" d="M22.359,40.87c-0.003-4.774,0.004-9.549-0.021-14.323
		c-0.003-0.61,0.07-0.897,0.8-0.874c1.853,0.059,3.708,0.044,5.562,0.002c0.459-0.011,0.804,0.256,1.226,0.287
		c0.003,4.655-0.012,9.311,0.026,13.966c0.006,0.761-0.181,1-0.965,0.979C26.779,40.847,24.569,40.876,22.359,40.87z"/>
	<path fill-rule="evenodd" clip-rule="evenodd" d="M16.678,40.933c1.499,0,2.997,0,4.496,0c0.158,0.481,0.448,0.961,0.452,1.444
		c0.036,4.097,0.021,8.193,0.02,12.29c0,0.435-0.129,0.861-0.622,0.837c-2.091-0.102-4.232,0.461-6.267-0.438
		c0-0.158,0-0.316,0-0.474c0.587-0.064,0.496-0.513,0.496-0.895c0.003-3.429,0.003-6.857,0-10.286c0-0.382,0.09-0.831-0.497-0.894
		c-0.101-0.237-0.093-0.474,0.003-0.711c0.547-0.04,0.766-0.337,0.684-0.871c0.163,0.001,0.326,0.002,0.488,0.003
		c0.035,0.211,0.005,0.507,0.289,0.523C16.535,41.479,16.638,41.209,16.678,40.933z"/>
	<path fill-rule="evenodd" clip-rule="evenodd" fill="#010101" d="M37.539,17.89c0.003-2.241,0.034-4.483-0.006-6.723
		c-0.012-0.682,0.193-0.858,0.859-0.848c2.319,0.038,4.639,0.011,6.959,0.009l-0.036-0.031c-0.021,2.52-0.042,5.039-0.063,7.558
		C42.682,17.866,40.11,17.878,37.539,17.89z"/>
	<path fill-rule="evenodd" clip-rule="evenodd" fill="#010202" d="M29.964,25.678c-0.009-2.275,0.003-4.551-0.042-6.825
		c-0.013-0.656,0.155-0.865,0.84-0.85c2.079,0.046,4.158,0.012,6.238,0.009c0.47,0.124,0.507,0.471,0.497,0.883
		c-0.012,0.456,0.038,0.913,0.06,1.37c0,0.311,0,0.623,0,0.934c-0.023,1.482-0.046,2.965-0.07,4.447
		C34.979,25.656,32.472,25.667,29.964,25.678z"/>
	<path fill-rule="evenodd" clip-rule="evenodd" fill="#B9F9F7" d="M29.964,25.678c2.508-0.011,5.016-0.021,7.523-0.032
		c0.392-1.477,0.229-2.962,0.07-4.448c0-0.311,0-0.623,0-0.934c0.043-0.226,0.152-0.462,0.119-0.677
		c-0.201-1.289,0.421-1.526,1.577-1.48c2.027,0.082,4.061,0,6.092-0.014l-0.021,0.015c-0.029,0.152-0.058,0.305-0.086,0.457
		c-0.204,0.259-0.203,0.519,0,0.778c-0.001,0.688-0.002,1.377-0.003,2.065c-0.144,1.419-0.367,2.841,0.119,4.242
		c0.084,0.025,0.167,0.051,0.251,0.076c-0.018,0.062-0.022,0.125-0.013,0.188c-0.7,0.122-0.999-0.124-0.983-0.881
		c0.04-1.892-0.018-3.785,0.027-5.677c0.019-0.788-0.265-1.027-1.027-1.004c-1.537,0.046-3.076,0.047-4.612,0
		c-0.77-0.024-1.041,0.227-1.02,1.009c0.046,1.773-0.035,3.55,0.033,5.321c0.037,0.959-0.224,1.326-1.239,1.285
		c-1.85-0.076-3.705-0.012-5.558-0.025c-0.668-0.005-1.257-0.006-0.849,0.947c0.073,0.17,0.044,0.389,0.044,0.585
		c0.002,4.219-0.005,8.438,0.007,12.657c0.003,0.979-0.427,1.448-1.419,1.437c-1.616-0.018-3.236,0.055-4.848-0.027
		c-1.031-0.052-1.354,0.248-1.338,1.311c0.061,4.139-0.013,8.28,0.049,12.419c0.016,1.1-0.225,1.546-1.412,1.474
		c-1.65-0.101-3.313,0.033-4.965-0.046c-1.012-0.049-1.255,0.317-1.245,1.277c0.046,4.258-0.002,8.517,0.038,12.774
		c0.008,0.879-0.245,1.176-1.136,1.145c-1.733-0.063-3.471,0.031-5.204-0.038C7.97,71.82,7.64,72.092,7.653,73.1
		c0.053,4.297,0.011,8.596,0.036,12.893c0.004,0.723-0.133,1.166-0.968,1.029c0.005-0.067,0.003-0.134-0.006-0.2
		c0.506-0.337,0.269-0.855,0.272-1.285c0.03-4.625,0.033-9.25,0.043-13.874c0.364-0.083,0.77,0.063,1.101-0.2
		c0.171,0,0.343,0.001,0.515,0.002c1.955,0.249,3.911,0.257,5.866-0.002c0.366-0.319,0.166-0.739,0.167-1.105
		c0.014-4.317,0.003-8.634,0.01-12.952c0-0.383-0.096-0.785,0.117-1.149l-0.038,0.005c2.168-0.009,4.337-0.067,6.503-0.002
		c0.901,0.027,1.103-0.234,1.096-1.11c-0.038-4.77-0.005-9.54,0.003-14.31l-0.012,0.029c2.209,0.006,4.419-0.022,6.627,0.038
		c0.784,0.021,0.972-0.218,0.965-0.979c-0.038-4.655-0.023-9.311-0.026-13.966C29.938,25.867,29.951,25.772,29.964,25.678z"/>
	<path fill-rule="evenodd" clip-rule="evenodd" fill="#CDCDCD" d="M-23.59,132.476c2.358,0.021,4.717,0.021,7.074,0.072
		c0.804,0.018,0.618-0.499,0.618-0.941c0.002-4.762,0.003-9.523,0.004-14.285c0,0-0.029,0.022-0.03,0.023
		c2.259-0.006,4.519-0.005,6.778-0.029c0.371-0.004,0.908,0.234,0.979-0.458c0.176-0.072,0.218-0.222,0.226-0.391
		c0.5,0,0.485,0.344,0.376,0.652c-0.181,0.511-0.602,0.671-1.126,0.668c-1.89-0.01-3.782,0.042-5.671-0.02
		c-0.927-0.031-1.221,0.247-1.208,1.196c0.05,3.819,0.017,7.641,0.021,11.461c0,0.311-0.012,0.644,0.087,0.93
		c0.358,1.027,0.026,1.57-1.051,1.58c-1.772,0.015-3.547,0.062-5.316-0.02c-1.041-0.047-1.338,0.273-1.331,1.323
		c0.049,6.341,0.033,12.682,0.011,19.023c-0.001,0.4,0.327,0.981-0.37,1.198c-0.017-6.697-0.033-13.396-0.051-20.093
		C-23.57,133.736-23.583,133.105-23.59,132.476z"/>
	<path fill-rule="evenodd" clip-rule="evenodd" fill="#030303" d="M22.371,40.84c-0.008,4.77-0.041,9.541-0.003,14.31
		c0.007,0.876-0.194,1.137-1.096,1.11c-2.166-0.065-4.335-0.007-6.503,0.002c-0.126-0.398-0.117-0.797-0.012-1.197
		c2.035,0.9,4.175,0.336,6.267,0.438c0.492,0.024,0.622-0.402,0.622-0.837c0-4.097,0.016-8.193-0.02-12.29
		c-0.004-0.482-0.294-0.962-0.452-1.444C21.573,40.902,21.972,40.871,22.371,40.84z"/>
	<path fill-rule="evenodd" clip-rule="evenodd" fill="#030303" d="M14.757,42.516c0.587,0.063,0.496,0.512,0.497,0.894
		c0.003,3.429,0.003,6.857,0,10.286c0,0.382,0.091,0.831-0.496,0.895C14.633,50.566,14.634,46.542,14.757,42.516z"/>
	<path fill-rule="evenodd" clip-rule="evenodd" fill="#7B8889" d="M45.344,18.094c-2.031,0.014-4.064,0.095-6.092,0.014
		c-1.156-0.046-1.777,0.191-1.577,1.48c0.033,0.214-0.076,0.451-0.119,0.677c-0.022-0.457-0.072-0.915-0.06-1.37
		c0.01-0.412-0.027-0.759-0.497-0.883c0.18-0.041,0.36-0.081,0.54-0.122c2.571-0.012,5.143-0.023,7.714-0.035
		C45.284,17.935,45.314,18.015,45.344,18.094z"/>
	<path fill-rule="evenodd" clip-rule="evenodd" fill="#030303" d="M16.678,40.933c-0.04,0.276-0.143,0.545-0.457,0.528
		c-0.283-0.017-0.253-0.312-0.289-0.523C16.181,40.936,16.429,40.935,16.678,40.933z"/>
	<path fill-rule="evenodd" clip-rule="evenodd" fill="#030303" d="M15.444,40.935c0.082,0.534-0.137,0.831-0.684,0.871
		c-0.002-0.156-0.004-0.312-0.006-0.468c0.084-0.135,0.167-0.27,0.251-0.405C15.151,40.933,15.298,40.934,15.444,40.935z"/>
	<path fill-rule="evenodd" clip-rule="evenodd" d="M15.005,40.932c-0.083,0.135-0.167,0.27-0.251,0.405
		C14.7,41.117,14.699,40.929,15.005,40.932z"/>
	<path fill-rule="evenodd" clip-rule="evenodd" fill="#515151" d="M60.485,231.938c0.002-2.443,0.005-4.887,0.007-7.33
		c0.158-0.003,0.315-0.009,0.473-0.009c40.009,0,80.019,0.001,120.028-0.003c0.575,0,1.192,0.15,1.672-0.34
		c-0.012-2.484-0.023-4.969-0.035-7.452c0.021-0.075,0.04-0.15,0.061-0.226l-0.003,0.003c0.083,0.013,0.157-0.007,0.223-0.059
		c2.304,0.014,4.608,0.025,6.912,0.044c0.242,0.002,0.469,0.004,0.609-0.238c0.512-0.444,0.265-1.038,0.265-1.557
		c0.013-62.391,0.012-124.78,0.012-187.17c0-0.553-0.008-1.105-0.012-1.658c2.312,0.155,4.644-0.309,6.946,0.238
		c0.223,0.053,0.133-0.304,0.17-0.477c0.091-0.001,0.182-0.003,0.272-0.004l-0.012-0.021c-0.015,0.788-0.042,1.576-0.042,2.364
		c-0.003,64.939-0.003,129.879-0.002,194.817c0,0.434,0.024,0.867,0.037,1.301l0.01-0.03c-0.082,0.008-0.165,0.016-0.247,0.022
		c-2.424-0.471-4.853-0.369-7.282-0.055c-0.024,0.003-0.042,0.063-0.063,0.096c-0.06,0.06-0.12,0.119-0.18,0.179
		c-0.367,0.176-0.305,0.516-0.304,0.822c0.007,2.207,0.019,4.414,0.028,6.621c0.002,0.046,0.005,0.091,0.012,0.137
		c-0.314-0.012-0.629-0.033-0.944-0.033c-42.673,0-85.347,0.001-128.02,0.004C60.879,231.925,60.683,231.933,60.485,231.938z"/>
	<path fill-rule="evenodd" clip-rule="evenodd" fill="#030303" d="M197.83,224.154c0.082-0.007,0.165-0.015,0.247-0.022
		c-0.015,2.232-0.073,4.466-0.022,6.696c0.02,0.855-0.157,1.145-1.074,1.118c-2.23-0.064-4.465,0-6.697,0.012
		c-0.081-0.001-0.162-0.003-0.242-0.004c-0.007-0.046-0.01-0.091-0.011-0.138c0.407-0.333,0.254-0.799,0.258-1.209
		c0.02-2.078,0.014-4.156,0.017-6.233c0.06-0.06,0.12-0.119,0.18-0.179C192.932,224.182,195.38,224.168,197.83,224.154z"/>
	<path fill-rule="evenodd" clip-rule="evenodd" fill="#010202" d="M198.085,25.7c-0.091,0.001-0.182,0.003-0.272,0.004
		c-2.371-0.004-4.742-0.009-7.113-0.013c-0.114,0-0.229,0-0.342,0c-0.033-0.074-0.066-0.148-0.1-0.222
		c-0.003-2.452-0.005-4.903-0.007-7.355l-0.063,0.035c2.456-0.296,4.922-0.063,7.382-0.126c0.671-0.017,0.448,0.514,0.453,0.854
		C198.054,21.152,198.067,23.426,198.085,25.7z"/>
	<path fill-rule="evenodd" clip-rule="evenodd" fill="#030303" d="M190.272,15.522c-0.27-0.02-0.661,0.036-0.685-0.302
		c-0.058-0.821-0.058-1.652,0-2.474c0.023-0.337,0.416-0.281,0.685-0.301C190.395,13.471,190.396,14.497,190.272,15.522z"/>
	<path fill-rule="evenodd" clip-rule="evenodd" fill="#030303" d="M190.268,11.26c-0.644-0.033-1.39,0.104-1.454-0.883
		C189.357,10.576,190.589,9.639,190.268,11.26z"/>
	<path fill-rule="evenodd" clip-rule="evenodd" fill="#030303" d="M189.525,18.002c-0.018-0.516,0.208-0.811,0.746-0.821
		c0.088,0.333,0.177,0.666-0.082,0.969c-0.001,0,0.063-0.035,0.063-0.035C190.009,18.078,189.767,18.04,189.525,18.002z"/>
	<path fill-rule="evenodd" clip-rule="evenodd" fill="#7B8889" d="M98.602,17.994l-0.034-0.088l0.082-0.047
		c5.115,0.012,10.23,0.022,15.346,0.034c0.018,0.047,0.042,0.093,0.048,0.142c0.003,0.02-0.036,0.044-0.056,0.067l0.015,0.037
		c-0.091,0.01-0.181,0.02-0.271,0.03c-0.155,0-0.311-0.001-0.465-0.002c-4.35-0.011-8.7,0.015-13.049-0.059
		c-0.979-0.017-1.534,0.167-1.553,1.215C98.645,18.88,98.624,18.437,98.602,17.994z"/>
	<path fill-rule="evenodd" clip-rule="evenodd" fill="#7B8889" d="M136.935,17.869l0.064,0.05c0,0-0.039,0.072-0.039,0.072
		c0.01,2.553,0.021,5.106,0.03,7.659c-0.057,0.031-0.116,0.044-0.181,0.039c-0.011-2.127-0.056-4.255-0.012-6.381
		c0.019-0.888-0.207-1.209-1.167-1.198c-4.688,0.054-9.378,0.028-14.067,0.031l0.015-0.056c-0.021-0.042-0.047-0.082-0.058-0.125
		c-0.004-0.018,0.03-0.044,0.047-0.066C126.69,17.886,131.812,17.877,136.935,17.869z"/>
	<path fill-rule="evenodd" clip-rule="evenodd" fill="#7B8889" d="M91.039,17.903l0.025,0.055l-0.05,0.035
		c0,0,0.056,0.067,0.056,0.067l-0.045,0.076c-5.067-0.015-10.135-0.029-15.202-0.043c-0.012-0.029-0.041-0.068-0.032-0.087
		c0.023-0.047,0.063-0.085,0.097-0.127l-0.028,0.017C80.919,17.898,85.979,17.9,91.039,17.903z"/>
	<path fill-rule="evenodd" clip-rule="evenodd" fill="#7B8889" d="M159.787,18.034l-0.007,0.087l-0.08,0.034l0.015-0.024
		c-5.061,0.002-10.122,0.004-15.184,0.006c-0.164-0.041-0.329-0.082-0.494-0.123c0.165-0.042,0.33-0.083,0.495-0.124
		c4.622,0.006,9.244,0.009,13.866,0.022C158.862,17.914,159.339,17.822,159.787,18.034z"/>
	<path fill-rule="evenodd" clip-rule="evenodd" fill="#010202" d="M53.024,18.04c-0.237-0.513-0.102-1.044-0.082-1.57
		c0.985,0.813,2.157,0.722,3.325,0.716c3.146-0.015,6.294-0.06,9.438,0.026c1.023,0.028,1.614-0.333,1.735-1.24
		c0.193-1.447,0.391-2.918-0.089-4.363c-0.205-0.616-0.635-0.831-1.262-0.827c-1.605,0.009-3.207,0.036-4.73,0.628
		c-0.512,0.199-0.822-0.058-1.119-0.392c-0.338-0.38-0.03-0.543,0.253-0.709c2.526-0.004,5.052-0.008,7.577-0.012
		c0.015,2.531,0.029,5.062,0.043,7.593c-4.447,0.007-8.895,0.01-13.341,0.029C54.19,17.921,53.592,17.797,53.024,18.04z"/>
	<path fill-rule="evenodd" clip-rule="evenodd" fill="#010202" d="M52.943,12.208c0-0.395,0-0.79,0-1.185
		c0.294,0.089,0.771-0.529,0.89,0.197C53.939,11.875,53.647,12.246,52.943,12.208z"/>
	<path fill-rule="evenodd" clip-rule="evenodd" fill="#9AFEFE" d="M136.81,25.689c0.064,0.005,0.124-0.007,0.181-0.039
		c0,0-0.027,0.036-0.026,0.036c0.117,0.181,0.293,0.248,0.5,0.256c2.002,0.077,4.006-0.085,6.012,0.123
		c1.057,0.109,1.688-0.32,1.567-1.634c-0.157-1.72-0.025-3.464-0.104-5.194c-0.035-0.747,0.293-0.873,0.897-0.872
		c4.218,0.007,8.435,0.022,12.652-0.012c0.825-0.006,0.989,0.336,0.973,1.06c-0.037,1.615-0.023,3.232-0.003,4.848
		c0.005,0.408-0.18,0.882,0.266,1.201l0.059-0.033c-0.027,0.085-0.055,0.17-0.083,0.254c0.127,0.083,0.253,0.236,0.38,0.237
		c2.322,0.019,4.645,0.011,6.967,0.029c0.712,0.006,0.704-0.454,0.703-0.952c-0.004-1.889,0.021-3.779-0.012-5.668
		c-0.013-0.695,0.185-0.976,0.93-0.972c4.291,0.028,8.582,0.037,12.872-0.021c0.45-0.005,0.886,0.604,1.334,0.043l0.012-0.008
		c-0.002,1.997-0.046,3.995,0.013,5.989c0.025,0.885-0.264,1.145-1.136,1.129c-2.229-0.039-4.461,0.016-6.691,0.032
		c-0.387,0.35-0.21,0.812-0.212,1.221c-0.014,4.243-0.038,8.487,0.015,12.73c0.012,0.961-0.304,1.209-1.209,1.179
		c-1.806-0.06-3.614-0.031-5.422,0c-0.208,0.003-0.599-0.31-0.68,0.206c-0.169,5.135-0.092,10.271-0.04,15.408
		c-2.582,0.003-5.165,0.007-7.747,0.01c-0.858,0.075-0.541,0.747-0.543,1.178c-0.023,4.092-0.036,8.185,0.004,12.277
		c0.009,0.896-0.195,1.269-1.173,1.222c-1.649-0.079-3.305-0.032-4.957-0.014c-0.387,0.004-0.937-0.193-0.955,0.523l0.021-0.021
		c-0.795,0.053-0.516,0.671-0.518,1.074c-0.019,4.292-0.006,8.584-0.022,12.876c-0.002,0.454,0.24,1.18-0.596,1.139
		c-2.021-0.099-4.064,0.341-6.064-0.246c-0.573-0.167-0.371,0.289-0.43,0.535c0.008,0.076-0.006,0.147-0.042,0.215
		c-0.696,0.191-0.421,0.771-0.423,1.184c-0.021,4.056-0.042,8.112,0.01,12.167c0.014,1.001-0.2,1.417-1.294,1.345
		c-1.49-0.098-2.991-0.041-4.487-0.015c-0.449,0.008-0.953-0.188-1.343,0.223c-0.049,0.074-0.05,0.149-0.003,0.224
		c0.004,5.067,0.007,10.133,0.01,15.2c-0.077-0.027-0.155-0.054-0.233-0.082c0-4.95,0-9.9,0-14.85c-0.086,0-0.172,0-0.259,0
		c0,4.956,0,9.912,0,14.867c-0.313,0.027-0.626,0.055-0.939,0.082c-1.262,0-2.524,0-3.786,0c-0.788-0.001-1.575-0.003-2.363-0.005
		c-0.073-0.037-0.149-0.042-0.228-0.018c-0.428,0.329-0.245,0.797-0.247,1.205c-0.014,3.614-0.009,7.228-0.01,10.842
		c0,2.847-0.001,2.814-2.946,2.864c-1.071,0.019-2.18-0.286-3.219,0.233c-0.149-0.002-0.299-0.003-0.448-0.004
		c-0.165-0.247-0.326-0.264-0.483,0.008l0.025,0.077c-0.074-0.024-0.149-0.049-0.224-0.073c-0.236,0.071-0.274,0.257-0.271,0.467
		c-0.001,4.453-0.032,8.906,0.019,13.359c0.012,1.016-0.226,1.359-1.302,1.344c-4.216-0.064-8.434-0.032-12.65-0.016
		c-0.323,0.001-0.727-0.194-0.977,0.212c-0.04,2.365-0.081,4.73-0.121,7.095c-1.168,0.354-2.368,0.262-3.562,0.262
		c-42.041,0.004-84.082,0.006-126.123,0.008c-0.046-0.064-0.093-0.129-0.14-0.193c0-0.194,0-0.39-0.001-0.585
		c0.698-0.218,0.369-0.799,0.371-1.199c0.022-6.342,0.039-12.683-0.011-19.023c-0.008-1.05,0.29-1.37,1.331-1.323
		c1.769,0.081,3.544,0.034,5.316,0.02c1.078-0.01,1.41-0.553,1.051-1.58c-0.1-0.286-0.087-0.619-0.087-0.93
		c-0.004-3.82,0.028-7.642-0.021-11.461c-0.013-0.949,0.281-1.227,1.208-1.196c1.889,0.063,3.781,0.01,5.671,0.02
		c0.524,0.003,0.945-0.157,1.126-0.668c0.109-0.308,0.124-0.652-0.376-0.653c-0.002-4.627-0.005-9.253-0.007-13.88
		c2.248,0.013,4.496,0,6.743,0.054c0.648,0.016,0.923-0.355,1.174-0.8c0.177-0.313,0.061-0.532-0.335-0.527
		c-0.002-4.374,0.026-8.748-0.029-13.121c-0.012-0.962,0.293-1.21,1.207-1.183c1.968,0.058,3.94,0.014,5.91,0.011
		c0.835,0.137,0.972-0.306,0.968-1.029C7.664,81.695,7.706,77.397,7.653,73.1c-0.013-1.008,0.317-1.28,1.279-1.241
		c1.732,0.069,3.471-0.024,5.204,0.038c0.891,0.032,1.144-0.265,1.136-1.145c-0.041-4.258,0.008-8.517-0.038-12.774
		c-0.01-0.959,0.233-1.326,1.245-1.277c1.652,0.08,3.315-0.054,4.965,0.046c1.187,0.072,1.428-0.374,1.412-1.474
		c-0.062-4.139,0.012-8.28-0.049-12.419c-0.016-1.063,0.308-1.363,1.338-1.311c1.612,0.083,3.232,0.01,4.848,0.027
		c0.992,0.011,1.422-0.458,1.419-1.437c-0.012-4.219-0.005-8.438-0.007-12.657c0-0.196,0.028-0.415-0.044-0.585
		c-0.408-0.953,0.181-0.952,0.849-0.947c1.853,0.013,3.708-0.051,5.558,0.025c1.015,0.042,1.276-0.325,1.239-1.285
		c-0.068-1.771,0.013-3.548-0.033-5.321c-0.021-0.782,0.25-1.033,1.02-1.009c1.536,0.047,3.076,0.046,4.612,0
		c0.763-0.023,1.046,0.216,1.027,1.004c-0.045,1.892,0.013,3.785-0.027,5.677c-0.016,0.757,0.283,1.003,0.983,0.882
		c1.378,0.005,2.759,0.05,4.136,0.001c0.962-0.035,1.95,0.237,2.887-0.191c0.104-0.084,0.207-0.168,0.31-0.253
		c0.351-0.314,0.217-0.734,0.22-1.111c0.014-1.692,0.025-3.385-0.001-5.077c-0.01-0.623,0.137-0.932,0.846-0.928
		c4.329,0.023,8.659,0.022,12.988,0c0.708-0.004,0.859,0.314,0.85,0.934c-0.024,1.692-0.017,3.385-0.003,5.077
		c0.003,0.375-0.142,0.799,0.242,1.097c0.056,0.057,0.083,0.125,0.083,0.204c-0.026,0.063-0.086,0.141-0.067,0.183
		c0.021,0.047,0.116,0.085,0.178,0.085c2.342,0.005,4.685,0.005,7.027,0.004c0.248,0,0.464-0.062,0.542-0.339l-0.028-0.076
		l0.057-0.057c0.319-0.216,0.246-0.55,0.258-0.858c0.074-1.863,0.209-3.727,0.189-5.588c-0.008-0.692,0.271-0.659,0.733-0.658
		c4.179,0.006,8.357,0.021,12.536-0.012c0.801-0.006,1.011,0.292,0.994,1.039c-0.04,1.773-0.004,3.548-0.018,5.322
		c-0.007,0.879,0.344,1.271,1.277,1.25c2.088-0.048,4.179-0.042,6.267,0c0.796,0.017,1.014-0.289,0.997-1.04
		c-0.041-1.813,0.032-3.628-0.031-5.439c-0.031-0.892,0.26-1.143,1.14-1.133c3.941,0.043,7.884,0.023,11.826,0.011
		c0.416-0.001,0.873,0.154,1.242-0.195c0.154,0.001,0.31,0.001,0.465,0.002c0.006,1.598-0.023,3.197,0.03,4.793
		c0.029,0.837-0.248,1.707,0.195,2.514c0.034,0.066,0.06,0.137,0.075,0.21c-0.009,0.065-0.025,0.131-0.022,0.196
		c0.001,0.02,0.056,0.053,0.086,0.053c2.457,0.003,4.914,0.006,7.371-0.003c0.121,0,0.165-0.127,0.07-0.244
		c0.022-0.077,0.045-0.152,0.067-0.229c0.308-0.331,0.182-0.741,0.185-1.117c0.016-1.987,0.013-3.975,0.016-5.962
		c4.246-0.004,8.492-0.018,12.738-0.007c1.465,0.003,1.941,0.501,1.941,1.912c0.001,1.455-0.01,2.909,0.008,4.364
		C136.498,25.014,136.329,25.459,136.81,25.689z M129.125,71.64c0.023-0.069,0.023-0.139,0.002-0.209
		c0.043-0.162,0.086-0.324,0.129-0.486c0.242-1.274,0.226-2.548,0.004-3.823c-0.001-0.539-0.002-1.077-0.003-1.615
		c0.147-0.091,0.154-0.184,0.001-0.277c0-0.149,0-0.299,0-0.449c0.236-0.294,0.119-0.631,0.117-0.953
		c-0.233-0.827-0.916-0.456-1.386-0.456c-26.734-0.019-53.469-0.017-80.204-0.018c-0.631,0-1.262-0.001-1.893-0.001
		c-0.357,0-0.739-0.037-0.797,0.471c0.039,0.164,0.077,0.327,0.115,0.491c0,0.147,0,0.295,0,0.442
		c-0.177,0.171-0.172,0.341,0.004,0.51c0,0.144,0,0.289,0,0.433c-0.208,0.328-0.209,0.656-0.001,0.985
		c0.001,0.146,0.001,0.292,0.002,0.438c-0.222,1.274-0.234,2.548,0.003,3.822c0.044,0.166,0.088,0.331,0.131,0.496
		c0.075,0.073,0.15,0.147,0.225,0.221c0.4,0.389,0.9,0.207,1.353,0.208c12.263,0.011,24.525,0.01,36.788,0.01
		c14.787,0,29.573,0.002,44.359-0.02C128.407,71.857,128.875,72.164,129.125,71.64z M136.905,56.209
		c0.532,0.021,0.527-0.351,0.527-0.72c0.001-2.011,0.001-4.022,0.002-6.033c0-0.362,0.025-0.739-0.489-0.777l0.006,0.013
		c-0.203-0.859-0.901-0.478-1.364-0.478c-27.182-0.02-54.362-0.019-81.544-0.018c-0.315,0-0.66-0.067-0.939,0.037
		c-0.46,0.172-0.879,0.361-0.723,1.087c0.464,2.155,0.474,4.333,0.008,6.497c-0.125,0.583,0.297,0.369,0.546,0.42
		c0.073-0.012,0.141,0.001,0.202,0.042c0.227,0.752,0.854,0.427,1.298,0.427c27.017,0.017,54.034,0.015,81.052,0.015
		c0.315,0,0.631-0.004,0.946-0.008c0.343-0.004,0.5-0.183,0.488-0.52L136.905,56.209z M143.291,88.071
		c-0.028,0.064-0.093,0.144-0.074,0.189c0.019,0.047,0.133,0.097,0.18,0.079c0.046-0.017,0.098-0.133,0.079-0.179
		C143.456,88.114,143.356,88.1,143.291,88.071z"/>
	<path fill-rule="evenodd" clip-rule="evenodd" fill="#FEFEFE" d="M-23.376,155.238c42.041-0.002,84.083-0.004,126.123-0.008
		c1.193,0,2.394,0.092,3.562-0.261c0.03,0.167,0.061,0.334,0.091,0.5l0.038-0.012c-42.832,0.001-85.664,0.002-128.497,0.003
		c-0.512,0-1.025,0.01-1.538,0.016c0.023-0.081,0.045-0.163,0.068-0.243l0.076,0.006L-23.376,155.238z"/>
	<path fill-rule="evenodd" clip-rule="evenodd" fill="#CDCDCD" d="M-23.376,155.238l-0.076,0.001l-0.076-0.006
		c-0.045-0.066-0.041-0.13,0.012-0.189C-23.47,155.109-23.423,155.174-23.376,155.238z"/>
	<path fill-rule="evenodd" clip-rule="evenodd" fill="#FEFEFE" d="M189.525,18.002c0.242,0.038,0.484,0.075,0.727,0.113
		c0.002,2.452,0.004,4.903,0.007,7.355c-0.082-0.003-0.164-0.007-0.246-0.01c-0.003-2.04-0.038-4.081,0.007-6.12
		c0.018-0.787-0.256-1.01-1.015-0.993c-2.039,0.045-4.079,0.02-6.119,0.022c0,0-0.012,0.008-0.011,0.008
		c0.01-0.066,0.018-0.133,0.025-0.2c0.061-0.022,0.082-0.063,0.064-0.125c0.44-0.025,0.882-0.05,1.322-0.075
		c1.125,0.125,2.251,0.127,3.376-0.001C188.282,18.109,188.904,18.07,189.525,18.002z"/>
	<path fill-rule="evenodd" clip-rule="evenodd" fill="#7B8889" d="M182.964,18.053c0.018,0.062-0.004,0.103-0.064,0.125
		c-5.138-0.014-10.276-0.027-15.415-0.041c-0.166-0.04-0.331-0.079-0.497-0.118c0.158-0.043,0.316-0.086,0.475-0.129
		c0.33-0.008,0.66-0.016,0.99-0.024c4.374,0.015,8.747,0.025,13.121,0.05C182.038,17.917,182.522,17.801,182.964,18.053z"/>
	<path fill-rule="evenodd" clip-rule="evenodd" fill="#030303" d="M187.663,17.976c-1.125,0.128-2.251,0.126-3.376,0.001
		C185.412,17.448,186.537,17.45,187.663,17.976z"/>
	<path fill-rule="evenodd" clip-rule="evenodd" fill="#030303" d="M168.453,17.865c-0.33,0.008-0.66,0.016-0.99,0.024
		c0.021-0.631,0.042-1.262,0.063-1.894C168.199,16.439,168.269,17.18,168.453,17.865z"/>
	<path fill-rule="evenodd" clip-rule="evenodd" fill="#030303" d="M167.526,11.972c0-0.316,0-0.632,0-0.948
		C168.173,11.339,168.173,11.655,167.526,11.972z"/>
	<path fill-rule="evenodd" clip-rule="evenodd" fill="#030303" d="M174.754,10.723c-0.028,0.066-0.043,0.167-0.091,0.186
		c-0.046,0.019-0.126-0.047-0.191-0.075c0.028-0.065,0.043-0.167,0.09-0.187C174.609,10.629,174.689,10.694,174.754,10.723z"/>
	<path fill-rule="evenodd" clip-rule="evenodd" fill="#FEFEFE" d="M45.8,216.601c-0.162-0.012-0.324-0.024-0.486-0.036
		c-0.153-5.072-0.028-10.146-0.009-15.219c0.086,0.015,0.172,0.03,0.259,0.046c0.003,0.084,0.005,0.168,0.008,0.251
		c-0.004,1.973,0.061,3.948-0.038,5.915c-0.058,1.146,0.292,1.443,1.434,1.44c14.513-0.039,29.027-0.025,43.541-0.025
		c12.463,0,24.925-0.01,37.388,0.018c0.936,0.003,1.336-0.181,1.293-1.22c-0.082-2.048-0.03-4.101-0.034-6.151
		c-0.002-0.069-0.004-0.139-0.006-0.208c0.589-0.023,1.179-0.068,1.768-0.068c17.243-0.004,34.487-0.003,51.73-0.003
		c0.014,5.08,0.027,10.16,0.041,15.241l0.003-0.003c-0.395-0.008-0.789-0.021-1.184-0.021c-42.175,0-84.349,0.001-126.523,0.003
		c-0.71,0-1.42,0.012-2.13,0.019c-0.066-0.019-0.127-0.008-0.183,0.031C50.381,216.606,48.09,216.604,45.8,216.601z"/>
	<path fill-rule="evenodd" clip-rule="evenodd" fill="#CDCDCD" d="M106.413,163.104l-0.019-0.052
		c0.389-0.295,0.247-0.72,0.249-1.096c0.012-2.009,0.006-4.019,0.006-6.028c4.646,0,9.294,0.008,13.94-0.013
		c0.411-0.002,0.984,0.293,1.202-0.389c0.089-0.031,0.178-0.063,0.267-0.095c10.019-0.001,20.038-0.001,30.058-0.002l-0.004,0.09
		c0.005,4.959,0.01,9.918,0.015,14.877c-0.552-0.004-1.104-0.013-1.655-0.013c-34.97-0.003-69.938-0.005-104.908-0.007
		c0-1.775-0.001-3.551,0-5.325c0-1.546,0.001-1.544,1.504-1.544c19.29,0,38.579,0.001,57.867-0.014
		C105.436,163.493,106.068,163.779,106.413,163.104z"/>
	<path fill-rule="evenodd" clip-rule="evenodd" fill="#333333" d="M182.647,201.34c-17.243,0-34.487-0.001-51.73,0.003
		c-0.589,0-1.179,0.045-1.768,0.068c-0.313-0.021-0.626-0.061-0.938-0.061c-27.156-0.003-54.312-0.002-81.467,0
		c-0.394,0-0.787,0.026-1.18,0.041c-0.086-0.016-0.173-0.031-0.259-0.046c-0.003-0.131-0.006-0.261-0.009-0.391
		c0.09-0.007,0.18-0.014,0.27-0.021c45.091-0.004,90.183-0.009,135.274-0.013c0.236,0,0.476-0.019,0.71,0.005
		c0.675,0.069,0.896-0.233,0.882-0.893c-0.033-1.459-0.009-2.919-0.009-4.379c0.001-1.595,0.001-1.596-1.583-1.596
		c-27.852-0.002-55.703-0.003-83.555-0.007c-17.24-0.001-34.479-0.006-51.719-0.01c-0.088-0.004-0.176-0.009-0.265-0.013
		c0.001-0.117,0.002-0.233,0.003-0.351c0.089-0.019,0.178-0.038,0.267-0.057c0.392,0.02,0.785,0.056,1.177,0.056
		c32.125,0.003,64.25,0.002,96.374-0.002c0.391,0,0.781-0.05,1.172-0.077c0.492,0.211,1.011,0.113,1.517,0.113
		c12.286,0.006,24.572,0.004,36.858,0.004C182.662,196.258,182.655,198.799,182.647,201.34z"/>
	<path fill-rule="evenodd" clip-rule="evenodd" fill="#FEFEFE" d="M106.413,163.104c-0.345,0.676-0.977,0.39-1.479,0.391
		c-19.289,0.015-38.578,0.014-57.867,0.014c-1.503,0-1.503-0.002-1.504,1.544c0,1.774,0,3.55,0,5.325
		c0.078,0.116,0.156,0.232,0.233,0.35c-0.079,0.038-0.157,0.077-0.236,0.116c-0.07-0.027-0.141-0.033-0.214-0.019
		c-0.023-2.362-0.038-4.725-0.077-7.086c-0.008-0.472,0.158-0.589,0.613-0.576c1.182,0.032,2.365,0.01,3.547,0.01
		c18.247,0,36.494,0.001,54.742-0.003C104.918,163.169,105.666,163.127,106.413,163.104z"/>
	<path fill-rule="evenodd" clip-rule="evenodd" fill="#FEFEFE" d="M45.571,193.623c-0.089,0.019-0.178,0.038-0.267,0.057
		c0.007-5.085,0.014-10.17,0.021-15.255c0.083,0.018,0.167,0.035,0.25,0.053c-0.009,0.063-0.012,0.127-0.009,0.19
		c0,4.892-0.001,9.784-0.002,14.677C45.566,193.438,45.568,193.53,45.571,193.623z"/>
	<path fill-rule="evenodd" clip-rule="evenodd" fill="#545555" d="M45.575,178.478c-0.083-0.018-0.167-0.035-0.25-0.053
		c-0.064-2.533-0.106-5.067,0.022-7.601c0.073-0.015,0.145-0.009,0.214,0.019c0,0.078,0.002,0.157,0.006,0.236
		c-0.001,2.37-0.002,4.741-0.004,7.112c-0.002,0.064-0.007,0.129-0.013,0.193L45.575,178.478z"/>
	<path fill-rule="evenodd" clip-rule="evenodd" fill="#FEFEFE" d="M106.649,155.928c0,2.01,0.006,4.02-0.006,6.028
		c-0.002,0.376,0.14,0.801-0.249,1.096c0.01-2.451,0.02-4.902,0.029-7.353c0.079-0.006,0.155,0.007,0.229,0.036
		C106.647,155.799,106.645,155.863,106.649,155.928z"/>
	<path fill-rule="evenodd" clip-rule="evenodd" fill="#545555" d="M45.565,200.935c-0.089,0.007-0.18,0.014-0.27,0.021
		c0.001-2.308,0.003-4.616,0.005-6.925c0.088,0.004,0.176,0.009,0.264,0.013C45.565,196.34,45.565,198.638,45.565,200.935z"/>
	<path fill-rule="evenodd" clip-rule="evenodd" fill="#CDCDCD" d="M106.652,155.735c-0.073-0.029-0.149-0.042-0.229-0.036
		c0.005-0.08,0.01-0.161,0.014-0.241l-0.038,0.012c0.087,0.012,0.174,0.022,0.261,0.033
		C106.659,155.581,106.656,155.658,106.652,155.735z"/>
	<path fill-rule="evenodd" clip-rule="evenodd" fill="#333333" d="M182.666,224.256c-0.479,0.49-1.097,0.34-1.672,0.34
		c-40.009,0.004-80.019,0.003-120.028,0.003c-0.158,0-0.315,0.006-0.473,0.009c-0.007-0.119-0.014-0.238-0.021-0.357
		c0.162-0.032,0.325-0.063,0.487-0.096c0.431,0.026,0.861,0.075,1.292,0.075c38.997,0.004,77.994,0.003,116.99,0.005
		C180.382,224.234,181.524,224.248,182.666,224.256z"/>
	<path fill-rule="evenodd" clip-rule="evenodd" fill="#FEFEFE" d="M60.958,224.154c-0.162,0.032-0.325,0.063-0.487,0.096
		c-2.527-0.038-5.055-0.075-7.582-0.113c-0.012-2.457-0.023-4.913-0.035-7.37l0.076,0.036c0.34,0.321,0.198,0.739,0.202,1.116
		c0.016,1.493,0.079,2.992-0.017,4.48c-0.073,1.146,0.193,1.594,1.458,1.524c2.117-0.115,4.245-0.019,6.368-0.012
		C60.947,223.992,60.953,224.073,60.958,224.154z"/>
	<path fill-rule="evenodd" clip-rule="evenodd" fill="#030303" d="M52.671,216.609c0.056-0.039,0.117-0.05,0.183-0.031
		c0.026,0.075,0.051,0.149,0.077,0.225l-0.076-0.036C52.793,216.715,52.732,216.662,52.671,216.609z"/>
	<path fill-rule="evenodd" clip-rule="evenodd" fill="#A6A6A6" d="M14.512,71.463c-1.955,0.259-3.911,0.25-5.866,0.002
		C10.602,71.36,12.557,71.361,14.512,71.463z"/>
	<path fill-rule="evenodd" clip-rule="evenodd" fill="#A6A6A6" d="M8.131,71.463c-0.332,0.263-0.737,0.117-1.101,0.2
		c-0.025-0.09-0.05-0.18-0.075-0.27C7.348,71.416,7.739,71.439,8.131,71.463z"/>
	<path fill-rule="evenodd" clip-rule="evenodd" fill="#CDCDCD" d="M-0.367,101.314c0.396-0.005,0.512,0.214,0.335,0.527
		c-0.251,0.445-0.526,0.815-1.174,0.8c-2.247-0.055-4.495-0.042-6.743-0.053c0.007-0.172-0.045-0.313-0.21-0.395
		c-0.013-0.087-0.025-0.175-0.038-0.263c2.346,0.016,4.692,0.032,7.039,0.045c0.23,0.001,0.481,0.023,0.574-0.273
		C-0.409,101.63-0.372,101.481-0.367,101.314z"/>
	<path fill-rule="evenodd" clip-rule="evenodd" fill="#ECECEC" d="M-8.158,102.193c0.166,0.081,0.217,0.222,0.21,0.395
		c0.002,4.625,0.005,9.251,0.007,13.879c-0.008,0.17-0.049,0.32-0.226,0.392C-8.164,111.97-8.161,107.082-8.158,102.193z"/>
	<path fill-rule="evenodd" clip-rule="evenodd" fill="#ECECEC" d="M-0.367,101.314c-0.005,0.167-0.042,0.316-0.217,0.388
		c-0.014-4.975-0.028-9.949-0.042-14.924c2.447,0.014,4.894,0.028,7.34,0.043c0.009,0.066,0.011,0.133,0.006,0.2
		c-1.97,0.002-3.942,0.047-5.91-0.011c-0.913-0.027-1.218,0.221-1.207,1.183C-0.341,92.566-0.369,96.94-0.367,101.314z"/>
	<path fill-rule="evenodd" clip-rule="evenodd" fill="#7B8889" d="M37.557,21.198c0.159,1.485,0.322,2.971-0.07,4.448
		C37.51,24.163,37.534,22.681,37.557,21.198z"/>
	<path fill-rule="evenodd" clip-rule="evenodd" fill="#010202" d="M52.922,25.475c-0.104,0.084-0.207,0.168-0.31,0.252
		c-2.336,0.001-4.673,0.001-7.011,0.001c-0.083-0.025-0.167-0.051-0.25-0.076c-0.103-1.412,0.111-2.833-0.119-4.242
		c0.001-0.688,0.002-1.377,0.003-2.065c0.122-0.26,0.124-0.519,0-0.778c0.029-0.152,0.058-0.305,0.086-0.457
		c2.551-0.133,5.102-0.19,7.651,0.03C52.8,20.583,52.901,23.029,52.922,25.475z"/>
	<path fill-rule="evenodd" clip-rule="evenodd" fill="#ECECEC" d="M45.602,25.729c2.337,0,4.674,0,7.011-0.001
		c-0.937,0.428-1.925,0.156-2.887,0.191c-1.377,0.049-2.758,0.004-4.136-0.001C45.58,25.853,45.584,25.79,45.602,25.729z"/>
	<path fill-rule="evenodd" clip-rule="evenodd" fill="#7B8889" d="M45.232,21.41c0.23,1.409,0.016,2.83,0.119,4.242
		C44.866,24.251,45.088,22.829,45.232,21.41z"/>
	<path fill-rule="evenodd" clip-rule="evenodd" fill="#7B8889" d="M45.236,18.566c0.124,0.259,0.122,0.519,0,0.778
		C45.034,19.085,45.033,18.825,45.236,18.566z"/>
	<path fill-rule="evenodd" clip-rule="evenodd" fill="#CDCDCD" d="M182.647,201.34c0.008-2.541,0.015-5.082,0.021-7.623
		c-0.003-5.097-0.006-10.193-0.009-15.29c-0.007-0.239-0.013-0.479-0.019-0.72c0.008-2.297,0.015-4.594,0.022-6.892
		c-0.001-5.114-0.002-10.229-0.003-15.345c0.001-0.083,0.003-0.166,0.005-0.25c-0.007-0.238-0.013-0.477-0.019-0.715
		c0.004-2.209,0.009-4.419,0.013-6.63c0.002-5.105,0.004-10.212,0.006-15.318c-0.003-2.468-0.006-4.937-0.009-7.404
		c0.001-0.079,0.002-0.159,0.003-0.239c0.001-5.087,0.003-10.175,0.005-15.263c-0.008-2.542-0.016-5.084-0.023-7.626
		c0.008-5.111,0.015-10.224,0.021-15.335c0.002-2.178,0.013-4.356-0.003-6.533c-0.002-0.362,0.184-0.792-0.241-1.068
		c-0.285-0.601-0.832-0.331-1.255-0.332c-6.613-0.019-13.227-0.026-19.84,0.003c-0.835,0.003-1.213-0.156-1.171-1.094
		c0.073-1.61,0.047-3.228,0.006-4.84c-0.019-0.709,0.199-0.98,0.936-0.961c1.691,0.043,3.385,0.019,5.078,0.008
		c0.414-0.002,0.888,0.134,1.165-0.349c0.03-0.07,0.081-0.108,0.153-0.112c0.42-0.334,0.241-0.803,0.243-1.21
		c0.014-3.817,0.008-7.633,0.008-11.45c-0.001-2.267,0-2.22,2.316-2.283c1.592-0.043,3.201,0.273,4.776-0.188
		c0.093-0.092,0.185-0.183,0.277-0.275c0.03-0.021,0.09-0.054,0.087-0.062c-0.023-0.056-0.059-0.108-0.09-0.161
		c0-4.504,0-9.008,0-13.512c0.216-0.698,0.596-1.009,1.416-0.964c1.686,0.09,3.381,0.037,5.071,0.02
		c0.396-0.004,0.907,0.192,1.071-0.427c0.024-0.096,0.049-0.192,0.073-0.288c0.503-0.116,0.388-0.524,0.388-0.859
		c0.005-4.37,0.004-8.74,0.001-13.11c0-0.379,0.106-0.822-0.45-0.94c-2.527,0.006-5.054,0.013-7.581,0.019
		c-0.019-0.065-0.028-0.132-0.027-0.2c2.23-0.017,4.462-0.072,6.691-0.033c0.872,0.016,1.161-0.244,1.136-1.129
		c-0.059-1.995-0.015-3.993-0.013-5.989c2.04-0.002,4.08,0.023,6.119-0.022c0.759-0.017,1.032,0.206,1.015,0.993
		c-0.045,2.039-0.01,4.08-0.007,6.12c-0.005,0.395-0.013,0.789-0.013,1.183c-0.001,62.376,0,124.752,0,187.128
		c0,2.541-0.001,2.499-2.534,2.557c-1.518,0.035-3.055-0.266-4.555,0.194c-0.065,0.052-0.14,0.071-0.223,0.059
		C182.674,211.5,182.661,206.42,182.647,201.34z"/>
	<path fill-rule="evenodd" clip-rule="evenodd" fill="#CDCDCD" d="M52.931,216.803c-0.026-0.075-0.051-0.149-0.077-0.225
		c0.71-0.007,1.42-0.019,2.13-0.019c42.175-0.002,84.349-0.003,126.523-0.003c0.395,0,0.789,0.014,1.184,0.021
		c-0.021,0.075-0.04,0.15-0.061,0.226c-0.333,0.325-0.198,0.743-0.202,1.122c-0.015,1.459-0.006,2.919-0.006,4.379
		c0,1.586,0,1.586-1.599,1.586c-39.487-0.001-78.975-0.001-118.462,0c-0.474,0-0.947,0.014-1.42,0.021
		c-2.123-0.007-4.251-0.104-6.368,0.012c-1.265,0.069-1.531-0.378-1.458-1.524c0.095-1.488,0.033-2.987,0.017-4.48
		C53.129,217.542,53.271,217.124,52.931,216.803z"/>
	<path fill-rule="evenodd" clip-rule="evenodd" fill="#333333" d="M190.358,25.692c0.113,0,0.228,0,0.342,0
		c-0.001,0.084-0.002,0.168-0.003,0.252c0.004,0.553,0.012,1.105,0.012,1.658c0,62.39,0.001,124.78-0.012,187.17
		c0,0.519,0.247,1.112-0.265,1.557c-0.029-0.427-0.085-0.854-0.085-1.281c-0.003-62.014-0.003-124.028-0.002-186.042
		C190.345,27.901,190.353,26.796,190.358,25.692z"/>
	<path fill-rule="evenodd" clip-rule="evenodd" fill="#ECECEC" d="M190.358,25.692c-0.005,1.104-0.013,2.209-0.013,3.313
		c-0.001,62.014-0.001,124.028,0.002,186.042c0,0.427,0.056,0.854,0.085,1.281c-0.141,0.242-0.367,0.24-0.609,0.238
		c-2.304-0.019-4.608-0.03-6.912-0.044c1.5-0.46,3.037-0.159,4.555-0.194c2.533-0.058,2.534-0.016,2.534-2.557
		c0-62.376-0.001-124.752,0-187.128c0-0.395,0.008-0.789,0.013-1.183c0.082,0.003,0.164,0.006,0.246,0.01
		C190.292,25.544,190.325,25.618,190.358,25.692z"/>
	<path fill-rule="evenodd" clip-rule="evenodd" fill="#ECECEC" d="M60.942,223.912c0.473-0.008,0.946-0.021,1.42-0.021
		c39.487-0.001,78.975-0.001,118.462,0c1.599,0,1.599,0,1.599-1.586c0-1.46-0.009-2.92,0.006-4.379
		c0.004-0.379-0.131-0.797,0.202-1.122c0.012,2.483,0.023,4.968,0.035,7.452c-1.142-0.008-2.283-0.021-3.426-0.021
		c-38.996-0.002-77.993-0.001-116.99-0.005c-0.43,0-0.861-0.049-1.292-0.075C60.953,224.073,60.947,223.992,60.942,223.912z"/>
	<path fill-rule="evenodd" clip-rule="evenodd" fill="#545555" d="M190.697,25.943c0.001-0.084,0.002-0.167,0.003-0.252
		c2.371,0.004,4.742,0.009,7.113,0.013c-0.037,0.173,0.053,0.529-0.17,0.477C195.34,25.635,193.008,26.098,190.697,25.943z"/>
	<path fill-rule="evenodd" clip-rule="evenodd" fill="#545555" d="M190.304,224.374c-0.003,2.077,0.003,4.155-0.017,6.233
		c-0.004,0.41,0.149,0.876-0.258,1.209c-0.011-2.206-0.022-4.413-0.029-6.62C190,224.89,189.937,224.55,190.304,224.374z"/>
	<path fill-rule="evenodd" clip-rule="evenodd" fill="#545555" d="M197.83,224.154c-2.449,0.014-4.897,0.027-7.346,0.041
		c0.021-0.033,0.039-0.093,0.063-0.096C192.977,223.785,195.406,223.684,197.83,224.154z"/>
	<path fill-rule="evenodd" clip-rule="evenodd" fill="#010202" d="M121.605,25.459c-0.022,0.077-0.045,0.152-0.067,0.229
		c-2.502-0.001-5.003-0.001-7.505-0.002c-0.016-0.074-0.041-0.144-0.075-0.211c0.015-2.445,0.029-4.891,0.045-7.337l-0.015-0.037
		c2.529-0.15,5.061-0.119,7.591-0.016c0,0-0.015,0.056-0.015,0.055c-0.009,0.072,0.003,0.141,0.033,0.207
		C121.6,20.718,121.603,23.088,121.605,25.459z"/>
	<path fill-rule="evenodd" clip-rule="evenodd" fill="#010202" d="M98.602,17.994c0.021,0.443,0.043,0.886,0.063,1.328
		c0.002,0.15,0.004,0.301,0.007,0.451c-0.031,1.958-0.062,3.917-0.092,5.875c-2.237,0.011-4.475-0.003-6.711,0.049
		c-0.671,0.016-0.867-0.176-0.855-0.849c0.039-2.237,0.013-4.476,0.011-6.713l0.045-0.076c0,0-0.056-0.068-0.056-0.067
		C93.543,17.993,96.073,17.994,98.602,17.994z"/>
	<path fill-rule="evenodd" clip-rule="evenodd" fill="#B9F9F7" d="M98.672,19.773c-0.003-0.15-0.005-0.301-0.007-0.451
		c0.019-1.048,0.574-1.232,1.553-1.215c4.349,0.074,8.699,0.048,13.049,0.059c-0.369,0.349-0.826,0.194-1.242,0.195
		c-3.942,0.012-7.885,0.032-11.826-0.011c-0.88-0.009-1.171,0.241-1.14,1.133c0.063,1.812-0.01,3.627,0.031,5.439
		c0.017,0.751-0.201,1.057-0.997,1.04c-2.088-0.042-4.179-0.048-6.267,0c-0.934,0.021-1.284-0.37-1.277-1.25
		c0.014-1.774-0.022-3.549,0.018-5.322c0.017-0.747-0.193-1.045-0.994-1.039c-4.178,0.033-8.357,0.018-12.536,0.012
		c-0.463-0.001-0.741-0.034-0.733,0.658c0.02,1.862-0.115,3.725-0.189,5.588c-0.012,0.308,0.061,0.642-0.258,0.858
		c-0.011-2.459-0.022-4.918-0.033-7.377c5.067,0.014,10.135,0.028,15.202,0.043c0.002,2.237,0.028,4.476-0.011,6.713
		c-0.012,0.673,0.185,0.864,0.855,0.849c2.236-0.052,4.474-0.038,6.71-0.049C99.02,23.697,98.849,21.735,98.672,19.773z"/>
	<path fill-rule="evenodd" clip-rule="evenodd" fill="#B9F9F7" d="M114.002,18.138c-0.016,2.446-0.03,4.892-0.045,7.337
		c-0.443-0.807-0.166-1.676-0.195-2.514c-0.054-1.596-0.024-3.196-0.03-4.793C113.822,18.158,113.912,18.148,114.002,18.138z"/>
	<path fill-rule="evenodd" clip-rule="evenodd" fill="#010202" d="M144.037,18.015c0.165,0.041,0.33,0.083,0.494,0.123
		c0.002,2.201-0.034,4.403,0.023,6.603c0.021,0.796-0.237,0.973-0.988,0.957c-2.199-0.046-4.401-0.013-6.603-0.011l0.027-0.036
		c-0.01-2.553-0.021-5.106-0.03-7.659C139.319,17.999,141.678,18.007,144.037,18.015z"/>
	<path fill-rule="evenodd" clip-rule="evenodd" fill="#B9F9F7" d="M121.597,18.348c-0.03-0.066-0.042-0.135-0.033-0.207
		c4.689-0.002,9.379,0.024,14.067-0.03c0.96-0.011,1.186,0.31,1.167,1.198c-0.044,2.126,0.001,4.253,0.012,6.381
		c-0.481-0.23-0.313-0.676-0.317-1.041c-0.018-1.455-0.007-2.909-0.008-4.364c0-1.411-0.477-1.908-1.941-1.912
		c-4.246-0.01-8.492,0.003-12.738,0.007C121.736,18.373,121.667,18.362,121.597,18.348z"/>
	<path fill-rule="evenodd" clip-rule="evenodd" fill="#030303" d="M75.823,18.093c0.011,2.459,0.022,4.918,0.033,7.377l-0.057,0.057
		l0.028,0.076c-2.56,0.022-5.12,0.044-7.68,0.067c0-0.079-0.028-0.147-0.083-0.204c0.009-2.444,0.019-4.889,0.028-7.333
		c0.082-0.04,0.165-0.079,0.247-0.118c2.516-0.079,5.038,0.167,7.55-0.135c-0.034,0.042-0.074,0.08-0.097,0.127
		C75.782,18.025,75.811,18.063,75.823,18.093z"/>
	<path fill-rule="evenodd" clip-rule="evenodd" fill="#7B8889" d="M68.338,18.014c-0.082,0.04-0.165,0.079-0.247,0.118
		c-5.038,0-10.075-0.001-15.112-0.001l-0.005-0.06l0.05-0.032c0.568-0.242,1.166-0.119,1.748-0.122
		c4.447-0.019,8.894-0.021,13.341-0.029C68.246,17.828,68.323,17.865,68.338,18.014z"/>
	<path fill-rule="evenodd" clip-rule="evenodd" fill="#030303" d="M166.988,18.019c0.166,0.04,0.331,0.079,0.497,0.118
		c-0.005,2.208-0.036,4.417,0.003,6.625c0.013,0.709-0.155,0.958-0.912,0.938c-2.207-0.057-4.416-0.027-6.625-0.031
		c-0.056-0.081-0.111-0.161-0.168-0.241l-0.059,0.033c0.093-2.443,0.119-4.887-0.01-7.33l-0.015,0.024
		C162.125,17.841,164.559,18.095,166.988,18.019z"/>
	<path fill-rule="evenodd" clip-rule="evenodd" fill="#B9F9F7" d="M159.714,18.131c0.129,2.443,0.103,4.886,0.01,7.33
		c-0.445-0.319-0.261-0.793-0.266-1.201c-0.021-1.616-0.034-3.233,0.003-4.848c0.017-0.723-0.147-1.066-0.973-1.06
		c-4.218,0.034-8.435,0.019-12.652,0.012c-0.604-0.001-0.933,0.125-0.897,0.872c0.079,1.729-0.053,3.474,0.104,5.194
		c0.12,1.314-0.511,1.744-1.567,1.634c-2.006-0.208-4.01-0.046-6.012-0.123c-0.207-0.008-0.383-0.075-0.5-0.256
		c2.2-0.002,4.402-0.036,6.602,0.011c0.751,0.016,1.01-0.161,0.988-0.957c-0.058-2.199-0.021-4.401-0.023-6.603
		C149.592,18.136,154.654,18.134,159.714,18.131z"/>
	<path fill-rule="evenodd" clip-rule="evenodd" fill="#B9F9F7" d="M52.979,18.131c5.037,0,10.075,0.001,15.112,0.001
		c-0.009,2.444-0.019,4.889-0.028,7.333c-0.384-0.298-0.239-0.723-0.242-1.097c-0.014-1.692-0.021-3.385,0.003-5.077
		c0.009-0.62-0.142-0.938-0.85-0.934c-4.329,0.022-8.659,0.023-12.988,0c-0.709-0.004-0.856,0.306-0.846,0.928
		c0.026,1.692,0.015,3.384,0.001,5.077c-0.003,0.377,0.131,0.797-0.22,1.111c-0.021-2.445-0.123-4.892,0.052-7.335
		C52.974,18.14,52.979,18.131,52.979,18.131z"/>
	<path fill-rule="evenodd" clip-rule="evenodd" fill="#010202" d="M53.137,56.279c-0.062-0.04-0.129-0.054-0.202-0.042
		c-0.013-2.248,0.017-4.497-0.062-6.743c-0.029-0.842,0.299-0.937,1.01-0.936c27.3,0.014,54.6,0.011,81.9,0.016
		c0.39,0,0.778,0.077,1.167,0.118l-0.006-0.013c-0.013,2.51-0.026,5.021-0.04,7.53l0.017-0.017c-0.434,0.014-0.866,0.04-1.3,0.04
		c-26.313,0.002-52.625,0.002-78.937,0.005C55.502,56.237,54.32,56.264,53.137,56.279z"/>
	<path fill-rule="evenodd" clip-rule="evenodd" fill="#010101" d="M45.35,71.44c-0.044-0.166-0.088-0.331-0.132-0.497
		c0.133-1.274,0.14-2.548-0.003-3.822c-0.001-0.146-0.001-0.292-0.002-0.438c0.12-0.328,0.122-0.656,0.001-0.985
		c0-0.144,0-0.289,0-0.433c0.092-0.17,0.099-0.34-0.004-0.509c0-0.147,0-0.295,0-0.442c0.044-0.157,0.088-0.313,0.132-0.469
		c26.475-0.005,52.95-0.011,79.424-0.016c1.46,0,2.92,0.015,4.379,0.023c0.038,0.309,0.076,0.618,0.113,0.927
		c0,0.149,0,0.299,0,0.449c0,0.093-0.001,0.185-0.001,0.277c0.001,0.539,0.002,1.077,0.003,1.615
		c-0.144,1.274-0.127,2.548-0.004,3.823c-0.043,0.162-0.086,0.324-0.129,0.486c-0.223,0.011-0.445,0.022-0.669,0.034
		c-0.171,0-0.342,0-0.513,0c-0.352-0.022-0.704-0.064-1.057-0.064c-25.802-0.002-51.603-0.001-77.404,0.002
		c-0.353,0-0.705,0.04-1.058,0.062c-0.171,0-0.343,0-0.515-0.001c-0.619-0.101-1.237-0.107-1.856,0.003
		c-0.168,0.006-0.336,0.013-0.504,0.02C45.494,71.428,45.427,71.413,45.35,71.44z"/>
	<path fill-rule="evenodd" clip-rule="evenodd" fill="#545555" d="M136.96,102.162c-0.047-0.075-0.046-0.149,0.003-0.224
		c2.521,0.002,5.042,0.004,7.563,0.006c2.541,0,5.081,0,7.621,0c0.071,0.037,0.142,0.074,0.212,0.11
		c0.267,0.626,0.822,0.35,1.243,0.351c9.189,0.019,18.38,0.03,27.57-0.001c0.961-0.003,1.334,0.225,1.27,1.239
		c-0.085,1.335-0.016,2.681-0.022,4.021c-0.01,1.8,0.188,1.616-1.677,1.618c-12.069,0.006-24.139,0.006-36.207,0.007
		c-0.003-2.002-0.043-4.005,0.01-6.006c0.022-0.854-0.19-1.167-1.108-1.137C141.281,102.215,139.12,102.165,136.96,102.162z"/>
	<path fill-rule="evenodd" clip-rule="evenodd" fill="#010202" d="M167.491,71.412c-0.072,0.004-0.123,0.042-0.153,0.113
		c-2.281-0.02-4.563-0.034-6.846-0.064c-0.407-0.005-0.689,0.041-0.673,0.55c0.08,2.396-0.146,4.797,0.123,7.19
		c-0.286,0.445-0.175,0.955-0.236,1.437c-1.33-0.437-1.188-0.469-0.804-2.073c0.374-1.564,1.219-3.391-0.852-4.575
		c-0.315-0.181-0.197-0.453-0.137-0.73c0.13-0.584-0.301-0.712-0.701-0.653c-0.813,0.12-1.715-0.407-2.436,0.318
		c-0.048,0.048,0.013,0.227,0.051,0.335c0.291,0.829-0.297,1.189-0.873,1.403c-0.435,0.161-0.663,0.293-0.661,0.784
		c0.014,3.268,0.009,6.537,0.009,9.805c0.001,0.452,0.177,0.803,0.662,0.809c1.913,0.024,3.826,0.018,5.739,0.022
		c-0.011,0.223-0.022,0.445-0.034,0.668c-0.078,0.008-0.151,0.029-0.222,0.063c-2.45-0.012-4.9-0.024-7.351-0.036l0.031,0.03
		c0.015-5.123,0.029-10.246,0.044-15.369l-0.021,0.021c2.036-0.001,4.072-0.001,6.107-0.002c0.244,0.204,0.488,0.185,0.731-0.002
		c0.864,0.145,0.805-0.424,0.804-1c-0.014-4.728-0.015-9.455-0.019-14.183c2.582-0.003,5.165-0.007,7.747-0.01l-0.029-0.028
		C167.493,61.295,167.492,66.354,167.491,71.412z"/>
	<path fill-rule="evenodd" clip-rule="evenodd" fill="#010101" d="M122.292,132.496c0.149,0.001,0.299,0.002,0.448,0.004
		c2.172,0.019,4.344,0.037,6.516,0.056l0.083,0.012l0.041-0.073l0.001-0.007c-0.034,0.43-0.1,0.859-0.1,1.289
		c-0.005,4.691,0,9.382,0.003,14.073c-2.57,0.012-5.141,0.024-7.71,0.037l0.006,0.007c-0.012-4.972-0.025-9.943-0.037-14.915
		c0.025-0.078,0.052-0.157,0.078-0.235c0.07-0.055,0.142-0.108,0.213-0.162l-0.025-0.077
		C121.969,132.501,122.13,132.499,122.292,132.496z"/>
	<path fill-rule="evenodd" clip-rule="evenodd" fill="#010202" d="M175.109,42.27c0,4.504,0,9.008,0,13.512
		c-0.032,0.075-0.031,0.149,0.003,0.223c-0.093,0.092-0.185,0.183-0.277,0.275c-2.447-0.014-4.895-0.029-7.341-0.043l0.029,0.028
		c-0.052-5.136-0.129-10.272,0.04-15.408c2.51,0.005,5.02,0.01,7.53,0.015l-0.025-0.031
		C175.082,41.317,175.095,41.793,175.109,42.27z"/>
	<path fill-rule="evenodd" clip-rule="evenodd" fill="#010101" d="M136.96,102.162c2.159,0.003,4.32,0.054,6.477-0.015
		c0.918-0.029,1.131,0.283,1.108,1.137c-0.053,2-0.013,4.004-0.01,6.006c-0.001,0.154-0.002,0.308-0.003,0.462
		c0.009,0.081,0.017,0.162,0.024,0.243c-0.013,2.104-0.014,4.209-0.05,6.313c-0.006,0.352,0.221,0.785-0.217,1.061
		c-2.447-0.015-4.895-0.029-7.342-0.044l0.021,0.037C136.967,112.295,136.964,107.229,136.96,102.162z"/>
	<path fill-rule="evenodd" clip-rule="evenodd" fill="#010101" d="M152.147,101.944c-2.54,0-5.08,0-7.621,0
		c-0.009-4.97-0.017-9.94-0.025-14.91c0.036-0.067,0.05-0.139,0.042-0.215c2.529-0.003,5.058-0.006,7.586-0.01l-0.031-0.03
		C152.114,91.834,152.13,96.889,152.147,101.944z"/>
	<path fill-rule="evenodd" clip-rule="evenodd" fill="#010101" d="M106.66,155.503c-0.087-0.011-0.174-0.021-0.261-0.033
		c-0.03-0.166-0.061-0.333-0.091-0.5c0.04-2.365,0.081-4.73,0.121-7.096c5.051,0.007,10.101,0.014,15.15,0.02l-0.006-0.007
		c-0.003,2.521-0.005,5.044-0.008,7.566C116.597,155.47,111.628,155.486,106.66,155.503z"/>
	<path fill-rule="evenodd" clip-rule="evenodd" d="M131.752,117.379c1.262,0,2.524,0,3.786,0c-0.022,2.133,0.243,1.814-1.903,1.86
		c-0.578,0.012-1.193-0.137-1.73,0.303c1.077,0.164,2.149,0.185,3.22,0.158c0.931-0.024,1.414,0.361,1.361,1.32
		c-0.055,1.011,0.113,2.026-0.187,3.037c-0.127,0.426-0.284,1.089,0.577,1.097c0.024,0.076,0.049,0.153,0.073,0.229
		c-0.024,2.132-0.05,4.265-0.074,6.396c-0.415,0.304-1.197-0.043-1.335,0.753c-1.184,0.125-2.368,0.125-3.553,0
		c-0.118-0.771-0.562-1.15-1.316-0.896c-0.874,0.295-0.82-0.25-0.813-0.785c0.053-3.724-0.106-7.448,0.089-11.172
		c0.029-0.56,0.311-0.903,0.725-0.872C131.868,118.899,131.793,118.154,131.752,117.379z"/>
	<path fill-rule="evenodd" clip-rule="evenodd" fill="#B9F9F7" d="M136.951,48.692c-0.389-0.041-0.777-0.118-1.167-0.118
		c-27.3-0.005-54.6-0.001-81.9-0.016c-0.711,0-1.04,0.094-1.01,0.936c0.078,2.246,0.048,4.495,0.062,6.743
		c-0.249-0.052-0.672,0.163-0.546-0.42c0.466-2.164,0.456-4.341-0.008-6.497c-0.156-0.726,0.263-0.915,0.723-1.087
		c0.279-0.104,0.624-0.037,0.939-0.037c27.182,0,54.362-0.002,81.544,0.018C136.049,48.215,136.748,47.833,136.951,48.692z"/>
	<path fill-rule="evenodd" clip-rule="evenodd" fill="#B9F9F7" d="M129.144,63.854c-1.459-0.008-2.919-0.023-4.379-0.023
		c-26.475,0.004-52.95,0.01-79.424,0.016c-0.082-0.007-0.164-0.014-0.247-0.021c0.059-0.508,0.44-0.471,0.797-0.471
		c0.631,0,1.262,0.001,1.893,0.001c26.735,0,53.47-0.001,80.204,0.018c0.47,0,1.152-0.371,1.386,0.456
		C129.294,63.813,129.218,63.821,129.144,63.854z"/>
	<path fill-rule="evenodd" clip-rule="evenodd" fill="#B9F9F7" d="M53.137,56.279c1.183-0.015,2.365-0.042,3.547-0.042
		c26.313-0.003,52.625-0.002,78.937-0.005c0.434,0,0.866-0.026,1.3-0.04c0.012,0.337-0.146,0.516-0.488,0.52
		c-0.315,0.004-0.631,0.008-0.946,0.008c-27.018,0-54.035,0.001-81.052-0.015C53.991,56.706,53.364,57.031,53.137,56.279z"/>
	<path fill-rule="evenodd" clip-rule="evenodd" fill="#B9F9F7" d="M127.945,71.464c0.171,0,0.342,0,0.513,0
		c0.178,0.227,0.436,0.149,0.667,0.176c-0.25,0.524-0.718,0.217-1.052,0.218c-14.786,0.022-29.572,0.02-44.359,0.02
		c-12.263,0-24.525,0.001-36.788-0.01c-0.452,0-0.952,0.182-1.353-0.208c0.025-0.063,0.018-0.121-0.022-0.175
		c0.168-0.007,0.336-0.013,0.504-0.02c0.619,0.247,1.238,0.252,1.856-0.003c0.172,0,0.343,0.001,0.514,0.001
		c0.392,0.284,0.84,0.149,1.261,0.149c25.625,0.006,51.251,0.005,76.877-0.003C127.024,71.61,127.51,71.751,127.945,71.464z"/>
	<path fill-rule="evenodd" clip-rule="evenodd" fill="#030303" d="M131.752,117.379c0.041,0.775,0.115,1.521-1.08,1.43
		c-0.414-0.031-0.695,0.312-0.725,0.872c-0.195,3.724-0.036,7.449-0.089,11.172c-0.008,0.535-0.062,1.08,0.813,0.785
		c0.755-0.255,1.198,0.125,1.316,0.896c-0.871,0.113-1.741,0.169-2.607-0.046l-0.001,0.007c0.003-5.04,0.007-10.08,0.01-15.121
		C130.177,117.375,130.964,117.377,131.752,117.379z"/>
	<path fill-rule="evenodd" clip-rule="evenodd" fill="#B9F9F7" d="M159.776,56.275c0.004,4.728,0.005,9.455,0.019,14.183
		c0.001,0.575,0.061,1.144-0.804,1c-0.244,0-0.487,0.001-0.731,0.002c-2.035,0.001-4.071,0.001-6.107,0.002
		c0.019-0.716,0.568-0.519,0.955-0.523c1.652-0.018,3.308-0.064,4.957,0.014c0.978,0.047,1.182-0.326,1.173-1.222
		c-0.04-4.092-0.027-8.185-0.004-12.277C159.235,57.021,158.917,56.35,159.776,56.275z"/>
	<path fill-rule="evenodd" clip-rule="evenodd" fill="#B9F9F7" d="M152.128,86.809c-2.528,0.003-5.057,0.007-7.586,0.01
		c0.059-0.246-0.144-0.702,0.43-0.535c2,0.587,4.043,0.147,6.064,0.246c0.836,0.041,0.594-0.686,0.596-1.139
		c0.017-4.292,0.004-8.584,0.022-12.876c0.002-0.403-0.277-1.021,0.518-1.074C152.158,76.563,152.143,81.687,152.128,86.809z"/>
	<path fill-rule="evenodd" clip-rule="evenodd" fill="#B9F9F7" d="M144.5,87.034c0.009,4.97,0.017,9.94,0.025,14.91
		c-2.521-0.002-5.042-0.004-7.563-0.006c0.39-0.411,0.894-0.215,1.343-0.223c1.496-0.026,2.997-0.083,4.487,0.015
		c1.094,0.072,1.308-0.344,1.294-1.345c-0.052-4.055-0.031-8.112-0.01-12.167C144.08,87.805,143.804,87.225,144.5,87.034z"/>
	<path fill-rule="evenodd" clip-rule="evenodd" fill="#030303" d="M136.876,125.154c-0.861-0.008-0.704-0.671-0.577-1.097
		c0.3-1.011,0.132-2.026,0.187-3.037c0.053-0.959-0.431-1.345-1.361-1.32c-1.07,0.027-2.143,0.006-3.22-0.158
		c0.537-0.44,1.152-0.291,1.73-0.303c2.146-0.046,1.881,0.273,1.903-1.86c0.313-0.027,0.627-0.055,0.939-0.082
		c0.087-0.005,0.173-0.011,0.259-0.017c0.078,0.027,0.156,0.054,0.233,0.082l-0.021-0.037c0.005,2.529,0.01,5.058,0.015,7.587
		C136.934,124.993,136.906,125.073,136.876,125.154z"/>
	<path fill-rule="evenodd" clip-rule="evenodd" fill="#B9F9F7" d="M159.951,25.668c2.209,0.004,4.418-0.026,6.625,0.031
		c0.757,0.02,0.925-0.229,0.912-0.938c-0.039-2.208-0.008-4.417-0.003-6.625c5.139,0.014,10.277,0.027,15.415,0.041
		c-0.008,0.067-0.016,0.133-0.025,0.2c-0.449,0.561-0.885-0.048-1.335-0.043c-4.29,0.058-8.581,0.049-12.872,0.021
		c-0.745-0.004-0.942,0.277-0.93,0.972c0.033,1.889,0.008,3.779,0.012,5.668c0.001,0.499,0.009,0.958-0.703,0.952
		c-2.322-0.018-4.645-0.01-6.967-0.029c-0.127-0.001-0.253-0.154-0.38-0.236C159.784,25.678,159.868,25.673,159.951,25.668z"/>
	<path fill-rule="evenodd" clip-rule="evenodd" fill="#ECECEC" d="M121.58,147.894c-5.05-0.006-10.1-0.013-15.15-0.02
		c0.25-0.406,0.653-0.211,0.977-0.212c4.217-0.017,8.435-0.049,12.65,0.016c1.076,0.016,1.313-0.328,1.302-1.344
		c-0.051-4.453-0.02-8.906-0.019-13.36l0.102-0.002l0.102,0.007C121.554,137.95,121.568,142.922,121.58,147.894z"/>
	<path fill-rule="evenodd" clip-rule="evenodd" fill="#ECECEC" d="M175.093,40.872c-2.511-0.005-5.021-0.01-7.53-0.015
		c0.081-0.516,0.472-0.203,0.68-0.206c1.808-0.031,3.616-0.06,5.422,0c0.905,0.03,1.221-0.218,1.209-1.179
		c-0.053-4.243-0.028-8.487-0.015-12.73c0.002-0.409-0.175-0.871,0.212-1.221c-0.001,0.068,0.009,0.135,0.027,0.201
		C175.096,30.771,175.095,35.821,175.093,40.872z"/>
	<path fill-rule="evenodd" clip-rule="evenodd" fill="#B9F9F7" d="M129.255,132.556c-2.172-0.019-4.344-0.037-6.516-0.056
		c1.039-0.52,2.147-0.215,3.219-0.233c2.945-0.05,2.946-0.018,2.946-2.864c0.001-3.614-0.004-7.228,0.01-10.842
		c0.002-0.408-0.181-0.876,0.247-1.205c0.001,2.594-0.009,5.188,0.007,7.783C129.184,127.611,129.225,130.083,129.255,132.556z"/>
	<path fill-rule="evenodd" clip-rule="evenodd" fill="#B9F9F7" d="M136.905,56.209c0.014-2.51,0.027-5.02,0.04-7.53
		c0.515,0.038,0.489,0.415,0.489,0.777c-0.001,2.011-0.001,4.022-0.002,6.033C137.432,55.858,137.437,56.23,136.905,56.209z"/>
	<path fill-rule="evenodd" clip-rule="evenodd" fill="#525252" d="M129.255,132.556c-0.03-2.473-0.071-4.944-0.087-7.417
		c-0.016-2.595-0.006-5.189-0.007-7.783c0.078-0.024,0.154-0.019,0.228,0.018c-0.003,5.041-0.007,10.081-0.01,15.121l-0.041,0.073
		L129.255,132.556z"/>
	<path fill-rule="evenodd" clip-rule="evenodd" fill="#B9F9F7" d="M136.737,117.28c-0.086,0.006-0.172,0.012-0.259,0.017
		c0-4.956,0-9.911,0-14.867c0.087,0,0.173,0,0.259,0C136.737,107.38,136.737,112.331,136.737,117.28z"/>
	<path fill-rule="evenodd" clip-rule="evenodd" fill="#B9F9F7" d="M114.033,25.686c2.502,0,5.003,0.001,7.505,0.002
		c0.095,0.117,0.051,0.244-0.07,0.244c-2.457,0.009-4.914,0.006-7.371,0.003c-0.03,0-0.085-0.033-0.086-0.053
		C114.007,25.817,114.024,25.751,114.033,25.686z"/>
	<path fill-rule="evenodd" clip-rule="evenodd" fill="#B9F9F7" d="M68.147,25.669c2.56-0.022,5.12-0.045,7.68-0.067
		c-0.078,0.278-0.293,0.339-0.542,0.339c-2.342,0.001-4.685,0-7.027-0.004c-0.063,0-0.157-0.038-0.178-0.085
		C68.061,25.811,68.121,25.732,68.147,25.669z"/>
	<path fill-rule="evenodd" clip-rule="evenodd" fill="#CDCDCD" d="M121.597,18.348c0.069,0.014,0.139,0.025,0.208,0.033
		c-0.003,1.987,0,3.975-0.016,5.962c-0.003,0.376,0.123,0.786-0.185,1.117C121.603,23.088,121.6,20.718,121.597,18.348z"/>
	<path fill-rule="evenodd" clip-rule="evenodd" fill="#A6A6A6" d="M45.215,67.122c0.144,1.273,0.136,2.548,0.003,3.822
		C44.98,69.67,44.993,68.396,45.215,67.122z"/>
	<path fill-rule="evenodd" clip-rule="evenodd" fill="#A6A6A6" d="M129.255,70.945c-0.123-1.274-0.14-2.549,0.004-3.823
		C129.481,68.396,129.498,69.671,129.255,70.945z"/>
	<path fill-rule="evenodd" clip-rule="evenodd" fill="#A6A6A6" d="M129.144,63.854c0.074-0.032,0.15-0.041,0.23-0.026
		c0.002,0.322,0.119,0.659-0.117,0.953C129.22,64.472,129.182,64.163,129.144,63.854z"/>
	<path fill-rule="evenodd" clip-rule="evenodd" fill="#B9F9F7" d="M143.292,88.071c0.064,0.029,0.164,0.043,0.184,0.09
		c0.019,0.046-0.033,0.162-0.079,0.179c-0.047,0.018-0.161-0.032-0.18-0.079C143.198,88.215,143.262,88.136,143.292,88.071z"/>
	<path fill-rule="evenodd" clip-rule="evenodd" fill="#A6A6A6" d="M45.213,65.7c0.121,0.329,0.119,0.657-0.001,0.985
		C45.004,66.356,45.005,66.028,45.213,65.7z"/>
	<path fill-rule="evenodd" clip-rule="evenodd" fill="#A6A6A6" d="M129.125,71.64c-0.231-0.026-0.489,0.051-0.667-0.176
		c0.224-0.011,0.446-0.022,0.669-0.034C129.148,71.501,129.148,71.571,129.125,71.64z"/>
	<path fill-rule="evenodd" clip-rule="evenodd" fill="#A6A6A6" d="M45.209,64.757c0.103,0.169,0.096,0.339,0.004,0.509
		C45.038,65.098,45.032,64.929,45.209,64.757z"/>
	<path fill-rule="evenodd" clip-rule="evenodd" fill="#B9F9F7" d="M122.292,132.496c-0.161,0.003-0.322,0.005-0.483,0.008
		C121.965,132.232,122.126,132.249,122.292,132.496z"/>
	<path fill-rule="evenodd" clip-rule="evenodd" fill="#B9F9F7" d="M121.542,132.979l-0.102-0.007l-0.102,0.002
		c-0.004-0.209,0.034-0.395,0.271-0.466c0.003,0.078,0.007,0.156,0.011,0.235C121.594,132.821,121.568,132.9,121.542,132.979z"/>
	<path fill-rule="evenodd" clip-rule="evenodd" fill="#A6A6A6" d="M45.094,63.824c0.083,0.007,0.165,0.014,0.247,0.021
		c-0.044,0.156-0.088,0.313-0.132,0.469C45.171,64.151,45.133,63.988,45.094,63.824z"/>
	<path fill-rule="evenodd" clip-rule="evenodd" fill="#525252" d="M121.621,132.743c-0.004-0.079-0.008-0.157-0.011-0.235
		c0.074,0.024,0.149,0.049,0.224,0.073C121.762,132.635,121.691,132.688,121.621,132.743z"/>
	<path fill-rule="evenodd" clip-rule="evenodd" fill="#A6A6A6" d="M45.551,71.485c0.04,0.054,0.047,0.112,0.022,0.175
		c-0.075-0.074-0.15-0.147-0.224-0.22C45.427,71.413,45.494,71.428,45.551,71.485z"/>
	<path fill-rule="evenodd" clip-rule="evenodd" fill="#7B8889" d="M159.951,25.668c-0.083,0.004-0.167,0.009-0.251,0.014
		c0.028-0.085,0.056-0.17,0.083-0.255C159.839,25.508,159.895,25.588,159.951,25.668z"/>
	<path fill-rule="evenodd" clip-rule="evenodd" fill="#A6A6A6" d="M129.256,65.507c0-0.092,0.001-0.185,0.001-0.277
		C129.411,65.323,129.404,65.416,129.256,65.507z"/>
	<path fill-rule="evenodd" clip-rule="evenodd" fill="#CDCDCD" d="M129.155,201.619c0.004,2.051-0.048,4.104,0.034,6.151
		c0.043,1.039-0.357,1.223-1.293,1.22c-12.463-0.027-24.925-0.018-37.388-0.018c-14.514,0-29.027-0.014-43.541,0.025
		c-1.142,0.003-1.491-0.295-1.434-1.44c0.099-1.967,0.034-3.942,0.038-5.915c6.502-0.003,13.005-0.008,19.507-0.009
		C86.438,201.628,107.796,201.624,129.155,201.619z"/>
	<path fill-rule="evenodd" clip-rule="evenodd" fill="#ECECEC" d="M129.155,201.619c-21.358,0.005-42.717,0.009-64.076,0.015
		c-6.502,0.001-13.004,0.006-19.507,0.009c-0.002-0.083-0.005-0.167-0.008-0.251c0.393-0.015,0.786-0.041,1.18-0.041
		c27.155-0.002,54.311-0.003,81.467,0c0.313,0,0.626,0.04,0.938,0.061C129.151,201.48,129.153,201.55,129.155,201.619z"/>
	<path fill-rule="evenodd" clip-rule="evenodd" fill="#FEFEFE" d="M182.661,155.471c0.001,5.115,0.002,10.23,0.003,15.345
		c-9.791,0-19.581,0-29.372-0.003c-0.391-0.001-0.781-0.042-1.172-0.064c0.002-0.117,0.005-0.234,0.007-0.352
		c-0.005-4.959-0.01-9.918-0.015-14.877c0.161-0.027,0.323-0.056,0.484-0.083c9.703,0.001,19.405,0.003,29.108,0.004
		c0.24,0.003,0.48,0.007,0.721,0.01C182.503,155.457,182.583,155.464,182.661,155.471z"/>
	<path fill-rule="evenodd" clip-rule="evenodd" fill="#525252" d="M182.425,155.45c-0.24-0.003-0.48-0.007-0.721-0.01
		c-0.312-0.362-0.733-0.215-1.107-0.215c-8.963-0.009-17.927-0.009-26.89-0.001c-0.376,0.001-0.796-0.14-1.111,0.212
		c-0.161,0.027-0.323,0.056-0.484,0.083l0.004-0.09c-0.325-0.336-0.743-0.199-1.122-0.199c-9.271-0.008-18.543-0.007-27.814,0
		c-0.378,0.001-0.797-0.135-1.121,0.201c-0.089,0.031-0.178,0.063-0.267,0.095c-0.075-0.024-0.15-0.049-0.226-0.073
		c0.003-2.522,0.005-5.045,0.008-7.566c2.569-0.013,5.14-0.025,7.71-0.037c0.113-0.008,0.228-0.016,0.341-0.024l-0.008,0.101
		c0.082,0.112,0.158,0.124,0.229-0.011c2.162-0.015,4.325-0.045,6.488-0.042c7.237,0.008,14.475,0.027,21.713,0.042
		c0.069,0.128,0.14,0.128,0.212,0.002c0.484-0.028,0.969-0.059,1.453-0.088c0.153,0.027,0.308,0.055,0.462,0.081
		c0.075,0.137,0.148,0.138,0.222-0.002c6.95-0.001,13.899-0.001,20.851-0.002c0.073,0.169,0.147,0.168,0.223,0.001
		c0.319-0.004,0.638-0.007,0.957-0.011c-0.001,1.368-0.045,2.738,0.013,4.104c0.035,0.835-0.27,1.707,0.209,2.506
		c0.006,0.238,0.012,0.477,0.019,0.715C182.585,155.297,182.505,155.374,182.425,155.45z"/>
	<path fill-rule="evenodd" clip-rule="evenodd" fill="#ECECEC" d="M152.126,170.396c-0.002,0.117-0.005,0.234-0.007,0.352
		c-0.157,0.014-0.313,0.04-0.471,0.04c-34.616-0.002-69.232-0.005-103.848-0.01c-0.667-0.001-1.336-0.034-2.004-0.052
		c-0.078-0.117-0.155-0.233-0.233-0.35c34.969,0.002,69.938,0.004,104.908,0.007C151.023,170.384,151.575,170.393,152.126,170.396z"
		/>
	<path fill-rule="evenodd" clip-rule="evenodd" fill="#ECECEC" d="M121.566,155.453c0.075,0.024,0.15,0.049,0.226,0.073
		c-0.218,0.682-0.791,0.387-1.202,0.389c-4.646,0.021-9.294,0.013-13.94,0.013c-0.004-0.064-0.002-0.129,0.003-0.192
		c0.004-0.077,0.007-0.154,0.008-0.232C111.628,155.486,116.597,155.47,121.566,155.453z"/>
	<path fill-rule="evenodd" clip-rule="evenodd" fill="#333333" d="M122.058,155.432c0.324-0.336,0.743-0.2,1.121-0.201
		c9.271-0.007,18.543-0.008,27.814,0c0.379,0,0.797-0.137,1.122,0.199C142.096,155.431,132.077,155.431,122.058,155.432z"/>
	<path fill-rule="evenodd" clip-rule="evenodd" fill="#525252" d="M45.565,200.935c0-2.297,0-4.595,0-6.892
		c17.24,0.004,34.479,0.009,51.719,0.01c27.852,0.004,55.703,0.005,83.555,0.007c1.584,0,1.584,0.001,1.583,1.596
		c0,1.46-0.024,2.92,0.009,4.379c0.015,0.659-0.207,0.962-0.882,0.893c-0.234-0.023-0.474-0.005-0.71-0.005
		C135.749,200.926,90.657,200.931,45.565,200.935z"/>
	<path fill-rule="evenodd" clip-rule="evenodd" fill="#FEFEFE" d="M182.66,178.427c0.003,5.097,0.006,10.193,0.009,15.29
		c-12.286,0-24.572,0.002-36.858-0.004c-0.506,0-1.024,0.098-1.517-0.113c0.016-0.072,0.023-0.146,0.023-0.221
		c0.366-0.404,0.212-0.9,0.213-1.355c0.017-4.521,0.016-9.041,0.021-13.563c6.075-0.008,12.151-0.015,18.227-0.024
		c6.312-0.011,12.624-0.024,18.936-0.037c0.078-0.001,0.157-0.002,0.236-0.003C182.185,178.406,182.422,178.417,182.66,178.427z"/>
	<path fill-rule="evenodd" clip-rule="evenodd" fill="#ECECEC" d="M144.317,193.379c0,0.074-0.008,0.148-0.023,0.221
		c-0.391,0.027-0.781,0.077-1.172,0.077c-32.124,0.004-64.249,0.005-96.374,0.002c-0.392,0-0.785-0.036-1.177-0.056
		c-0.002-0.093-0.004-0.186-0.007-0.278c32.406-0.001,64.811-0.001,97.217,0.001C143.292,193.346,143.804,193.367,144.317,193.379z"
		/>
	<path fill-rule="evenodd" clip-rule="evenodd" fill="#333333" d="M45.797,170.727c0.668,0.018,1.336,0.051,2.004,0.052
		c34.616,0.005,69.232,0.008,103.848,0.01c0.157,0,0.313-0.026,0.471-0.04c0.391,0.022,0.781,0.063,1.172,0.064
		c9.791,0.003,19.581,0.003,29.372,0.003c-0.008,2.298-0.015,4.595-0.022,6.892c-0.354-0.316-0.207-0.737-0.212-1.114
		c-0.018-1.38-0.076-2.766,0.016-4.141c0.071-1.087-0.275-1.387-1.372-1.382c-10.099,0.04-20.197,0.02-30.296,0.019
		c-35.07-0.004-70.14-0.007-105.209-0.01c-0.004-0.079-0.006-0.158-0.006-0.236C45.64,170.804,45.718,170.765,45.797,170.727z"/>
	<path fill-rule="evenodd" clip-rule="evenodd" fill="#CDCDCD" d="M144.317,193.379c-0.513-0.012-1.024-0.033-1.536-0.033
		c-32.406-0.002-64.811-0.002-97.217-0.001c0-4.893,0.001-9.785,0.002-14.677c0.154-0.068,0.308-0.136,0.462-0.204
		c0.433-0.015,0.866-0.043,1.298-0.043c31.778-0.002,63.556-0.002,95.334,0c0.63,0,1.26,0.026,1.89,0.04
		c-0.005,4.521-0.004,9.042-0.021,13.563C144.529,192.479,144.683,192.975,144.317,193.379z"/>
	<path fill-rule="evenodd" clip-rule="evenodd" fill="#ECECEC" d="M46.028,178.464c-0.154,0.068-0.308,0.136-0.462,0.204
		c-0.003-0.063,0-0.127,0.009-0.19l-0.025-0.093c0.083,0.006,0.165,0.013,0.247,0.02C45.874,178.425,45.951,178.444,46.028,178.464z
		"/>
	<path fill-rule="evenodd" clip-rule="evenodd" fill="#525252" d="M46.028,178.464c-0.077-0.02-0.154-0.039-0.23-0.06
		c-0.078-0.071-0.156-0.143-0.234-0.213c0.001-2.371,0.002-4.742,0.004-7.112c35.07,0.003,70.139,0.006,105.209,0.01
		c10.099,0.001,20.197,0.021,30.296-0.019c1.097-0.005,1.443,0.295,1.372,1.382c-0.092,1.375-0.033,2.761-0.016,4.141
		c0.005,0.377-0.142,0.798,0.212,1.114c0.006,0.24,0.012,0.48,0.019,0.72c-0.237-0.01-0.475-0.021-0.711-0.03
		c-0.04-0.096-0.08-0.192-0.12-0.288c-0.039,0.097-0.077,0.194-0.116,0.291c-6.312,0.013-12.624,0.026-18.936,0.037
		c-6.075,0.01-12.151,0.017-18.227,0.024c-0.63-0.014-1.26-0.04-1.89-0.04c-31.778-0.002-63.557-0.002-95.334,0
		C46.894,178.421,46.46,178.449,46.028,178.464z"/>
	<path fill-rule="evenodd" clip-rule="evenodd" fill="#515151" d="M45.563,178.191c0.078,0.07,0.156,0.142,0.234,0.213
		c-0.083-0.007-0.165-0.014-0.247-0.02C45.557,178.32,45.562,178.256,45.563,178.191z"/>
	<path fill-rule="evenodd" clip-rule="evenodd" fill="#FEFEFE" d="M181.246,147.906c-6.951,0.001-13.9,0.001-20.851,0.002
		c-0.074-0.029-0.148-0.028-0.222,0.002c-0.154-0.026-0.309-0.054-0.462-0.081c-0.001-4.965-0.002-9.931-0.003-14.896
		c0-0.098-0.001-0.194-0.001-0.291c0.31-0.034,0.618-0.098,0.928-0.098c7.344,0,14.687,0.007,22.03,0.013
		c-0.002,5.106-0.004,10.213-0.006,15.318c-0.078,0.007-0.156,0.014-0.234,0.021c-0.319,0.004-0.638,0.007-0.957,0.011
		C181.394,147.876,181.32,147.876,181.246,147.906z"/>
	<path fill-rule="evenodd" clip-rule="evenodd" fill="#525252" d="M136.876,125.154c0.029-0.081,0.058-0.161,0.087-0.242
		c0.076-0.011,0.153-0.021,0.229-0.032c9.783,0.003,19.566,0.005,29.35,0.007c0.325,0.002,0.65,0.004,0.977,0.006l-0.024,0.072
		c0.145,0.553,0.6,0.412,0.968,0.412c3.857,0.008,7.715,0.009,11.571-0.001c0.36-0.001,0.829,0.168,0.959-0.409
		c0.556-0.018,1.111-0.035,1.667-0.053c-0.001,0.08-0.002,0.16-0.003,0.239c-0.386,0.302-0.222,0.729-0.227,1.101
		c-0.019,1.459-0.008,2.919-0.008,4.378c0,1.615,0,1.616-1.562,1.616c-14.555,0.005-29.108,0.009-43.663,0.013
		c0.001-1.847,0.013-3.694-0.008-5.542c-0.006-0.449,0.184-0.953-0.24-1.335C136.925,125.308,136.901,125.23,136.876,125.154z"/>
	<path fill-rule="evenodd" clip-rule="evenodd" fill="#FEFEFE" d="M182.66,124.914c-0.556,0.018-1.111,0.035-1.667,0.053
		c-4.5-0.001-8.999-0.001-13.498-0.002l0.024-0.072c-0.012-4.957-0.023-9.914-0.035-14.87c0.006-0.097,0.012-0.194,0.017-0.292
		c5.055-0.026,10.109-0.053,15.164-0.08C182.663,114.739,182.661,119.827,182.66,124.914z"/>
	<path fill-rule="evenodd" clip-rule="evenodd" fill="#FEFEFE" d="M182.663,86.69c-0.007,5.111-0.014,10.224-0.021,15.335
		c-2.52-0.023-5.04-0.046-7.56-0.069c-0.003-0.085-0.005-0.17-0.008-0.256c0-4.886,0-9.773,0-14.659
		c0.007-0.07,0.012-0.14,0.014-0.21c2.404-0.031,4.81-0.063,7.215-0.094C182.422,86.722,182.542,86.706,182.663,86.69z"/>
	<path fill-rule="evenodd" clip-rule="evenodd" fill="#010101" d="M175.093,40.872c0.002-5.051,0.003-10.101,0.005-15.151
		c2.527-0.006,5.054-0.013,7.581-0.019c0.021,4.969,0.041,9.939,0.062,14.909c-0.024,0.096-0.049,0.191-0.073,0.288
		c-2.533-0.02-5.066-0.039-7.6-0.058L175.093,40.872z"/>
	<path fill-rule="evenodd" clip-rule="evenodd" fill="#333333" d="M175.082,101.957c2.52,0.023,5.04,0.046,7.56,0.069
		c0.008,2.542,0.016,5.084,0.023,7.626c-5.055,0.027-10.109,0.054-15.164,0.08c-6.6-0.019-13.199-0.041-19.799-0.052
		c-1.056-0.001-2.112,0.047-3.169,0.073c0.001-0.154,0.002-0.308,0.003-0.462c12.068-0.001,24.138-0.001,36.207-0.007
		c1.865-0.001,1.667,0.182,1.677-1.618c0.007-1.341-0.063-2.686,0.022-4.021c0.064-1.014-0.309-1.242-1.27-1.239
		c-9.19,0.031-18.381,0.02-27.57,0.001c-0.421-0.001-0.977,0.275-1.243-0.351c5.051-0.01,10.102-0.013,15.152-0.031
		C170.035,102.014,172.558,101.979,175.082,101.957z"/>
	<path fill-rule="evenodd" clip-rule="evenodd" fill="#ECECEC" d="M159.942,79.201c-0.269-2.393-0.043-4.794-0.123-7.19
		c-0.017-0.509,0.266-0.556,0.673-0.55c2.282,0.031,4.564,0.044,6.846,0.064c-0.277,0.482-0.751,0.346-1.165,0.348
		c-1.693,0.011-3.387,0.035-5.078-0.008c-0.736-0.019-0.954,0.252-0.936,0.961c0.041,1.613,0.067,3.23-0.006,4.84
		c-0.042,0.938,0.336,1.098,1.171,1.094c6.613-0.029,13.227-0.021,19.84-0.003c0.423,0.001,0.97-0.27,1.255,0.332
		c-4.535,0.012-9.071,0.019-13.606,0.038c-2.838,0.012-5.676,0.043-8.514,0.065l-0.006-0.048l0.035,0.047
		c-0.063-0.049-0.118-0.043-0.168,0.02C160.088,79.18,160.015,79.177,159.942,79.201z"/>
	<path fill-rule="evenodd" clip-rule="evenodd" fill="#333333" d="M137.198,132.261c14.555-0.004,29.108-0.008,43.663-0.013
		c1.562,0,1.562-0.001,1.562-1.616c0-1.459-0.011-2.919,0.008-4.378c0.005-0.372-0.159-0.799,0.227-1.101
		c0.003,2.468,0.006,4.937,0.009,7.404c-7.344-0.006-14.687-0.013-22.03-0.013c-0.31,0-0.618,0.063-0.928,0.098
		c-0.391-0.022-0.782-0.063-1.173-0.063c-6.335-0.005-12.67-0.008-19.005-0.002c-0.783,0.001-1.566,0.051-2.35,0.079
		c-0.071-0.05-0.143-0.099-0.214-0.147c-0.003-0.084-0.006-0.167-0.009-0.251C137.038,132.259,137.118,132.26,137.198,132.261z"/>
	<path fill-rule="evenodd" clip-rule="evenodd" fill="#ECECEC" d="M182.741,40.611c-0.021-4.97-0.041-9.939-0.062-14.909
		c0.557,0.118,0.45,0.561,0.45,0.94c0.003,4.37,0.004,8.74-0.001,13.11C183.128,40.086,183.244,40.495,182.741,40.611z"/>
	<path fill-rule="evenodd" clip-rule="evenodd" fill="#333333" d="M160.298,79.193c2.838-0.022,5.676-0.053,8.514-0.065
		c4.535-0.019,9.071-0.026,13.606-0.038c0.425,0.276,0.239,0.706,0.241,1.068c0.016,2.177,0.005,4.355,0.003,6.533
		c-0.12,0.016-0.24,0.031-0.36,0.047c0.262-2.04,0.011-4.091,0.139-6.13c0.061-0.978-0.317-1.176-1.215-1.172
		c-6.576,0.033-13.152,0.021-19.728,0.009c-0.449,0-0.954,0.188-1.339-0.233c0.05-0.063,0.105-0.069,0.167-0.02
		C160.327,79.192,160.298,79.193,160.298,79.193z"/>
	<path fill-rule="evenodd" clip-rule="evenodd" fill="#FEFEFE" d="M167.494,56.237c2.446,0.014,4.894,0.029,7.341,0.043
		c-1.575,0.462-3.185,0.146-4.776,0.188c-2.316,0.063-2.317,0.017-2.316,2.283c0,3.817,0.006,7.633-0.008,11.45
		c-0.002,0.408,0.177,0.876-0.243,1.21C167.492,66.354,167.493,61.295,167.494,56.237z"/>
	<path fill-rule="evenodd" clip-rule="evenodd" fill="#ECECEC" d="M175.068,40.841c2.533,0.019,5.066,0.038,7.6,0.058
		c-0.164,0.62-0.676,0.423-1.071,0.427c-1.69,0.017-3.386,0.07-5.071-0.02c-0.82-0.044-1.2,0.267-1.416,0.964
		C175.095,41.793,175.082,41.317,175.068,40.841z"/>
	<path fill-rule="evenodd" clip-rule="evenodd" fill="#333333" d="M182.425,147.896c0.078-0.007,0.156-0.014,0.234-0.021
		c-0.004,2.211-0.009,4.421-0.013,6.63c-0.479-0.799-0.174-1.671-0.209-2.506C182.38,150.635,182.424,149.265,182.425,147.896z"/>
	<path fill-rule="evenodd" clip-rule="evenodd" fill="#ECECEC" d="M175.112,56.005c-0.034-0.074-0.035-0.148-0.003-0.223
		c0.031,0.053,0.066,0.104,0.09,0.161C175.202,55.951,175.142,55.984,175.112,56.005z"/>
	<path fill-rule="evenodd" clip-rule="evenodd" fill="#333333" d="M182.425,155.45c0.08-0.076,0.16-0.153,0.24-0.229
		c-0.002,0.084-0.004,0.167-0.005,0.25C182.583,155.464,182.503,155.457,182.425,155.45z"/>
	<path fill-rule="evenodd" clip-rule="evenodd" fill="#7B8889" d="M98.672,19.773c0.177,1.961,0.348,3.923-0.093,5.875
		C98.611,23.69,98.641,21.731,98.672,19.773z"/>
	<path fill-rule="evenodd" clip-rule="evenodd" fill="#A6A6A6" d="M127.945,71.464c-0.435,0.287-0.921,0.146-1.381,0.146
		c-25.626,0.008-51.252,0.009-76.877,0.003c-0.42,0-0.869,0.135-1.261-0.149c0.353-0.021,0.706-0.062,1.058-0.062
		c25.802-0.003,51.603-0.004,77.404-0.002C127.241,71.4,127.593,71.442,127.945,71.464z"/>
	<path fill-rule="evenodd" clip-rule="evenodd" fill="#A6A6A6" d="M47.912,71.463c-0.618,0.255-1.237,0.25-1.856,0.003
		C46.674,71.356,47.293,71.362,47.912,71.463z"/>
	<path fill-rule="evenodd" clip-rule="evenodd" fill="#ECECEC" d="M175.082,101.957c-2.523,0.023-5.047,0.058-7.57,0.066
		c-5.051,0.018-10.102,0.021-15.152,0.031c-0.07-0.037-0.141-0.073-0.212-0.11c-0.017-5.055-0.033-10.11-0.05-15.165
		c2.45,0.012,4.9,0.024,7.351,0.036c-0.313,0.361-0.735,0.213-1.11,0.217c-1.538,0.017-3.078,0.049-4.613-0.011
		c-0.855-0.034-1.169,0.193-1.158,1.111c0.048,4.14,0.052,8.281-0.002,12.42c-0.013,0.972,0.315,1.18,1.218,1.175
		c7.097-0.035,14.194-0.024,21.292-0.027C175.077,101.786,175.079,101.872,175.082,101.957z"/>
	<path fill-rule="evenodd" clip-rule="evenodd" fill="#CDCDCD" d="M175.074,101.701c-7.098,0.003-14.195-0.008-21.292,0.027
		c-0.902,0.004-1.23-0.204-1.218-1.175c0.054-4.14,0.05-8.281,0.002-12.42c-0.011-0.918,0.303-1.145,1.158-1.111
		c1.535,0.06,3.075,0.027,4.613,0.011c0.375-0.004,0.798,0.144,1.11-0.217c0.07-0.034,0.144-0.055,0.222-0.063
		c0.09,0.021,0.179,0.042,0.269,0.062c0.355,0.375,0.816,0.207,1.228,0.208c4.636,0.016,9.271,0.016,13.908,0.02
		C175.074,91.928,175.074,96.814,175.074,101.701z"/>
	<path fill-rule="evenodd" clip-rule="evenodd" fill="#515151" d="M159.938,86.814c-0.09-0.021-0.179-0.042-0.269-0.062
		c0.012-0.223,0.023-0.446,0.034-0.668c0.001-1.815,0.001-3.63,0.002-5.446c0.062-0.482-0.05-0.992,0.236-1.437
		c0.073-0.024,0.146-0.021,0.218,0.01c0.385,0.421,0.89,0.233,1.339,0.233c6.575,0.013,13.151,0.024,19.728-0.009
		c0.897-0.004,1.275,0.194,1.215,1.172c-0.128,2.04,0.123,4.091-0.139,6.13c-2.405,0.031-4.811,0.063-7.215,0.094
		C170.038,86.826,164.988,86.82,159.938,86.814z"/>
	<path fill-rule="evenodd" clip-rule="evenodd" d="M159.706,80.638c-0.001,1.815-0.001,3.63-0.002,5.446
		c-1.913-0.005-3.826,0.002-5.739-0.022c-0.485-0.006-0.661-0.357-0.662-0.809c0-3.268,0.005-6.537-0.009-9.805
		c-0.002-0.491,0.227-0.623,0.661-0.784c0.576-0.214,1.164-0.575,0.873-1.403c-0.038-0.108-0.099-0.287-0.051-0.335
		c0.721-0.725,1.622-0.198,2.436-0.318c0.4-0.059,0.831,0.069,0.701,0.653c-0.061,0.277-0.179,0.549,0.137,0.73
		c2.07,1.184,1.226,3.011,0.852,4.575C158.518,80.168,158.375,80.201,159.706,80.638z"/>
	<path fill-rule="evenodd" clip-rule="evenodd" fill="#545555" d="M158.259,71.459c0.244-0.001,0.487-0.001,0.731-0.002
		C158.748,71.644,158.503,71.663,158.259,71.459z"/>
	<path fill-rule="evenodd" clip-rule="evenodd" fill="#FEFEFE" d="M136.966,132.509c0.071,0.049,0.143,0.098,0.214,0.147
		c0,0.092,0,0.185,0,0.277c-2.126,0.008-4.254,0.059-6.379,0.006c-0.913-0.022-1.218,0.223-1.207,1.181
		c0.053,4.567,0.028,9.137,0.03,13.705c-0.113,0.009-0.228,0.017-0.341,0.024c-0.003-4.691-0.008-9.382-0.003-14.073
		c0-0.43,0.065-0.859,0.1-1.289c0.866,0.215,1.736,0.159,2.607,0.046c1.185,0.125,2.369,0.125,3.553,0
		C136.018,132.653,136.494,132.666,136.966,132.509z"/>
	<path fill-rule="evenodd" clip-rule="evenodd" fill="#CDCDCD" d="M167.484,110.023c0.012,4.956,0.023,9.913,0.035,14.87
		c-0.326-0.002-0.651-0.004-0.977-0.006c-0.405-0.373-0.902-0.197-1.355-0.198c-9.327-0.015-18.655-0.016-27.982-0.019
		c-0.003-1.612-0.007-3.225-0.008-4.837c-0.002-2.269,0-2.224,2.317-2.277c1.592-0.037,3.2,0.26,4.776-0.187
		c0.438-0.276,0.211-0.709,0.217-1.061c0.036-2.104,0.037-4.208,0.05-6.313C152.2,110.004,159.841,110.013,167.484,110.023z"/>
	<path fill-rule="evenodd" clip-rule="evenodd" fill="#ECECEC" d="M167.484,110.023c-7.643-0.01-15.284-0.019-22.927-0.028
		c-0.008-0.081-0.016-0.162-0.024-0.243c1.057-0.025,2.113-0.074,3.169-0.073c6.6,0.011,13.199,0.034,19.799,0.052
		C167.496,109.829,167.49,109.926,167.484,110.023z"/>
	<path fill-rule="evenodd" clip-rule="evenodd" fill="#FEFEFE" d="M144.291,117.369c-1.576,0.447-3.185,0.15-4.776,0.187
		c-2.317,0.053-2.319,0.008-2.317,2.277c0.001,1.613,0.005,3.225,0.008,4.837c-0.007,0.07-0.011,0.14-0.012,0.21
		c-0.076,0.011-0.153,0.021-0.229,0.032c-0.005-2.529-0.01-5.059-0.015-7.587C139.396,117.339,141.843,117.354,144.291,117.369z"/>
	<path fill-rule="evenodd" clip-rule="evenodd" fill="#545555" d="M137.198,132.261c-0.08-0.001-0.16-0.002-0.24-0.003
		c-0.027-0.159-0.055-0.318-0.082-0.478c0.024-2.132,0.05-4.265,0.074-6.396c0.424,0.382,0.234,0.886,0.24,1.335
		C137.21,128.566,137.199,130.414,137.198,132.261z"/>
	<path fill-rule="evenodd" clip-rule="evenodd" fill="#030303" d="M136.875,131.78c0.027,0.159,0.055,0.318,0.082,0.478
		c0.003,0.084,0.006,0.167,0.009,0.251c-0.473,0.157-0.948,0.145-1.426,0.024C135.678,131.737,136.46,132.084,136.875,131.78z"/>
	<path fill-rule="evenodd" clip-rule="evenodd" fill="#333333" d="M152.596,155.437c0.315-0.352,0.735-0.211,1.111-0.212
		c8.963-0.008,17.927-0.008,26.89,0.001c0.374,0,0.796-0.147,1.107,0.215C172.001,155.439,162.299,155.438,152.596,155.437z"/>
	<path fill-rule="evenodd" clip-rule="evenodd" fill="#CDCDCD" d="M129.625,147.825c-0.002-4.568,0.022-9.138-0.03-13.705
		c-0.011-0.958,0.294-1.203,1.207-1.181c2.125,0.053,4.253,0.002,6.379-0.006c7.51,0,15.02,0,22.528,0
		c0.001,4.965,0.002,9.931,0.003,14.896c-0.484,0.029-0.969,0.06-1.453,0.088c-0.07-0.022-0.142-0.023-0.212-0.002
		c-7.238-0.015-14.476-0.034-21.713-0.042c-2.163-0.003-4.326,0.027-6.488,0.042c-0.077-0.021-0.153-0.019-0.229,0.011
		L129.625,147.825z"/>
	<path fill-rule="evenodd" clip-rule="evenodd" fill="#333333" d="M181.246,147.906c0.074-0.03,0.148-0.03,0.223,0.001
		C181.393,148.074,181.319,148.075,181.246,147.906z"/>
	<path fill-rule="evenodd" clip-rule="evenodd" fill="#333333" d="M160.173,147.91c0.073-0.03,0.147-0.031,0.222-0.002
		C160.322,148.048,160.249,148.047,160.173,147.91z"/>
	<path fill-rule="evenodd" clip-rule="evenodd" fill="#333333" d="M158.046,147.915c0.07-0.021,0.142-0.021,0.212,0.002
		C158.186,148.043,158.116,148.043,158.046,147.915z"/>
	<path fill-rule="evenodd" clip-rule="evenodd" fill="#333333" d="M129.617,147.926c0.075-0.029,0.151-0.032,0.229-0.011
		C129.775,148.05,129.699,148.038,129.617,147.926z"/>
	<path fill-rule="evenodd" clip-rule="evenodd" fill="#515151" d="M181.712,178.399c0.039-0.097,0.077-0.194,0.116-0.291
		c0.04,0.096,0.08,0.192,0.12,0.288C181.87,178.397,181.791,178.398,181.712,178.399z"/>
	<path fill-rule="evenodd" clip-rule="evenodd" fill="#ECECEC" d="M159.708,132.934c-7.509,0-15.019,0-22.528,0
		c0-0.093,0-0.186,0-0.277c0.783-0.028,1.566-0.078,2.35-0.079c6.335-0.006,12.67-0.003,19.005,0.002
		c0.391,0,0.782,0.041,1.173,0.063C159.708,132.739,159.708,132.836,159.708,132.934z"/>
	<path fill-rule="evenodd" clip-rule="evenodd" fill="#ECECEC" d="M137.193,124.88c0.001-0.07,0.005-0.14,0.012-0.21
		c9.327,0.003,18.655,0.004,27.982,0.019c0.453,0.001,0.95-0.175,1.355,0.198C156.759,124.885,146.976,124.883,137.193,124.88z"/>
	<path fill-rule="evenodd" clip-rule="evenodd" fill="#333333" d="M167.495,124.965c4.499,0.001,8.998,0.001,13.498,0.002
		c-0.13,0.577-0.599,0.408-0.959,0.409c-3.856,0.01-7.714,0.009-11.571,0.001C168.094,125.377,167.639,125.518,167.495,124.965z"/>
	<path fill-rule="evenodd" clip-rule="evenodd" fill="#ECECEC" d="M159.938,86.814c5.05,0.006,10.1,0.012,15.149,0.018
		c-0.002,0.07-0.007,0.14-0.014,0.21c-4.637-0.004-9.272-0.003-13.908-0.02C160.754,87.021,160.293,87.188,159.938,86.814z"/>
	<polygon fill-rule="evenodd" clip-rule="evenodd" fill="#010202" points="160.298,79.193 160.327,79.191 160.292,79.145 	"/>
</g>
</svg>
